<svg width="312" height="303" viewBox="0 0 312 303" fill="none" xmlns="http://www.w3.org/2000/svg">
<path d="M134.59 302.779C200.219 302.779 253.422 299.465 253.422 295.376C253.422 291.288 200.219 287.973 134.59 287.973C68.9612 287.973 15.7583 291.288 15.7583 295.376C15.7583 299.465 68.9612 302.779 134.59 302.779Z" fill="#DFC2FF"/>
<path opacity="0.8" d="M134.59 302.779C200.219 302.779 253.422 299.465 253.422 295.376C253.422 291.288 200.219 287.973 134.59 287.973C68.9612 287.973 15.7583 291.288 15.7583 295.376C15.7583 299.465 68.9612 302.779 134.59 302.779Z" fill="white"/>
<path d="M223.887 13.8711H104.402C96.1527 13.8711 89.4653 20.5585 89.4653 28.8077V281.063C89.4653 289.312 96.1527 295.999 104.402 295.999H223.887C232.137 295.999 238.824 289.312 238.824 281.063V28.8077C238.824 20.5585 232.137 13.8711 223.887 13.8711Z" fill="#263238"/>
<path d="M232.182 44.8514H96.0996V265.019H232.182V44.8514Z" fill="white" stroke="#263238" stroke-width="1.33739" stroke-miterlimit="10"/>
<path d="M185.002 134.004C196.521 122.484 196.521 103.808 185.002 92.2891C173.483 80.77 154.807 80.77 143.287 92.2891C131.768 103.808 131.768 122.484 143.287 134.004C154.807 145.523 173.483 145.523 185.002 134.004Z" fill="#DFC2FF"/>
<path d="M202.87 251.174H125.427C125.253 251.175 125.08 251.141 124.919 251.075C124.757 251.009 124.611 250.912 124.487 250.789C124.364 250.666 124.265 250.52 124.199 250.359C124.132 250.198 124.097 250.026 124.097 249.852C124.096 249.677 124.13 249.503 124.196 249.341C124.263 249.18 124.361 249.033 124.484 248.909C124.608 248.785 124.755 248.687 124.917 248.621C125.079 248.554 125.252 248.521 125.427 248.522H202.87C203.044 248.522 203.217 248.556 203.378 248.623C203.539 248.69 203.685 248.788 203.808 248.912C203.931 249.035 204.028 249.182 204.094 249.343C204.16 249.505 204.193 249.677 204.192 249.852C204.192 250.202 204.053 250.539 203.805 250.787C203.557 251.035 203.221 251.174 202.87 251.174Z" fill="#DFC2FF"/>
<path d="M205.392 159.225H122.898C121.196 159.225 119.815 160.605 119.815 162.307V172.032C119.815 173.734 121.196 175.115 122.898 175.115H205.392C207.094 175.115 208.474 173.734 208.474 172.032V162.307C208.474 160.605 207.094 159.225 205.392 159.225Z" fill="#DFC2FF"/>
<path d="M205.392 188.944H122.898C121.196 188.944 119.815 190.324 119.815 192.027V201.751C119.815 203.454 121.196 204.834 122.898 204.834H205.392C207.094 204.834 208.474 203.454 208.474 201.751V192.027C208.474 190.324 207.094 188.944 205.392 188.944Z" fill="#DFC2FF"/>
<path d="M178.832 127.86L170.152 122.863V118.735C171.409 117.215 172.319 115.439 172.82 113.531C173.119 113.637 173.433 113.691 173.75 113.692C174.826 113.692 175.511 110.356 175.626 107.973C176.879 105.321 175.172 103.768 175.172 103.768C175.172 103.768 175.88 103.06 176.348 100.224C176.817 97.3871 174.696 98.571 173.043 95.9727C171.39 93.3743 170.206 90.5454 164.779 90.5454C163.283 90.4962 161.808 90.898 160.544 91.6987C159.28 92.4993 158.286 93.6617 157.691 95.0348C156.34 95.0397 154.994 95.197 153.678 95.5037C152.018 95.9727 151.549 101.408 152.963 103.537C153.597 104.701 153.934 106.002 153.947 107.327C153.571 106.866 153.179 106.743 152.963 107.788C152.494 110.148 154.386 113.454 154.386 113.454L155.362 113.177C155.854 115.216 156.803 117.117 158.137 118.735V122.863L149.458 127.86C148.444 128.445 147.603 129.287 147.017 130.3C146.431 131.313 146.123 132.463 146.122 133.633V136.493C151.283 140.481 157.622 142.644 164.145 142.644C170.667 142.644 177.006 140.481 182.168 136.493V133.633C182.168 132.463 181.86 131.312 181.275 130.299C180.689 129.285 179.846 128.444 178.832 127.86Z" fill="#263238"/>
<path d="M131.047 200.883C130.848 200.88 130.658 200.8 130.516 200.66C130.441 200.592 130.38 200.509 130.339 200.416C130.298 200.324 130.277 200.223 130.278 200.122C130.28 199.983 130.32 199.848 130.393 199.73L131.777 197.516L129.079 197.6C128.977 197.607 128.875 197.591 128.78 197.556C128.684 197.52 128.598 197.464 128.525 197.393C128.4 197.252 128.331 197.07 128.331 196.881C128.331 196.693 128.4 196.511 128.525 196.37C128.596 196.296 128.682 196.238 128.778 196.201C128.874 196.164 128.976 196.148 129.079 196.155L131.739 196.255L130.37 194.049C130.296 193.929 130.256 193.79 130.255 193.649C130.254 193.547 130.275 193.447 130.316 193.354C130.357 193.261 130.418 193.178 130.493 193.111C130.634 192.971 130.825 192.891 131.024 192.888C131.155 192.889 131.283 192.927 131.393 192.998C131.503 193.068 131.591 193.169 131.646 193.288L132.961 195.663L134.26 193.303C134.322 193.177 134.417 193.07 134.534 192.995C134.652 192.919 134.789 192.876 134.929 192.872C135.026 192.873 135.122 192.894 135.211 192.934C135.299 192.973 135.379 193.031 135.444 193.103C135.585 193.249 135.662 193.446 135.659 193.649C135.659 193.781 135.624 193.911 135.559 194.026L134.168 196.255L136.866 196.155C136.968 196.148 137.071 196.164 137.167 196.201C137.262 196.238 137.349 196.296 137.42 196.37C137.551 196.506 137.622 196.689 137.619 196.878C137.619 197.068 137.548 197.252 137.42 197.393C137.347 197.464 137.26 197.52 137.165 197.556C137.07 197.591 136.968 197.607 136.866 197.6L134.152 197.516L135.505 199.707C135.581 199.829 135.621 199.97 135.621 200.114C135.621 200.318 135.54 200.513 135.396 200.658C135.251 200.802 135.056 200.883 134.852 200.883C134.72 200.881 134.592 200.841 134.482 200.767C134.373 200.693 134.288 200.589 134.237 200.468L132.953 198.161L131.677 200.468C131.62 200.588 131.532 200.691 131.42 200.764C131.309 200.837 131.18 200.878 131.047 200.883Z" fill="#263238"/>
<path d="M143.515 200.883C143.316 200.88 143.126 200.8 142.985 200.66C142.909 200.592 142.849 200.509 142.808 200.416C142.767 200.324 142.746 200.223 142.747 200.122C142.749 199.983 142.789 199.848 142.862 199.73L144.246 197.516L141.555 197.6C141.453 197.605 141.35 197.589 141.254 197.553C141.157 197.518 141.069 197.463 140.994 197.393C140.892 197.287 140.824 197.154 140.799 197.009C140.774 196.865 140.793 196.716 140.853 196.583C140.914 196.449 141.013 196.337 141.138 196.261C141.264 196.185 141.409 196.148 141.555 196.155L144.207 196.255L142.839 194.049C142.765 193.929 142.725 193.79 142.724 193.649C142.723 193.547 142.744 193.447 142.785 193.354C142.826 193.261 142.886 193.178 142.962 193.111C143.103 192.971 143.293 192.891 143.492 192.888C143.623 192.889 143.751 192.927 143.862 192.998C143.972 193.068 144.06 193.169 144.115 193.288L145.43 195.663L146.729 193.303C146.79 193.177 146.885 193.07 147.003 192.995C147.121 192.919 147.257 192.876 147.398 192.873C147.495 192.872 147.591 192.892 147.68 192.932C147.769 192.972 147.848 193.03 147.913 193.103C147.984 193.175 148.04 193.26 148.079 193.354C148.117 193.447 148.136 193.548 148.136 193.649C148.133 193.782 148.096 193.911 148.028 194.026L146.637 196.255L149.343 196.17C149.444 196.164 149.545 196.179 149.64 196.217C149.734 196.254 149.819 196.312 149.888 196.386C150.019 196.522 150.091 196.704 150.088 196.893C150.088 197.084 150.016 197.267 149.888 197.408C149.817 197.48 149.732 197.535 149.638 197.571C149.544 197.607 149.443 197.622 149.343 197.616L146.621 197.531L147.974 199.722C148.05 199.844 148.09 199.985 148.089 200.129C148.089 200.333 148.008 200.529 147.864 200.673C147.72 200.817 147.525 200.898 147.321 200.898C147.189 200.896 147.061 200.856 146.951 200.782C146.842 200.709 146.757 200.605 146.706 200.483L145.422 198.177L144.146 200.483C144.087 200.601 143.997 200.7 143.886 200.771C143.775 200.841 143.647 200.88 143.515 200.883Z" fill="#263238"/>
<path d="M155.992 200.883C155.79 200.882 155.597 200.802 155.454 200.66C155.378 200.592 155.318 200.509 155.277 200.416C155.236 200.324 155.215 200.223 155.216 200.122C155.218 199.983 155.258 199.848 155.331 199.73L156.715 197.516L154.024 197.6C153.879 197.606 153.736 197.569 153.612 197.493C153.489 197.417 153.391 197.306 153.331 197.174C153.27 197.042 153.251 196.895 153.274 196.752C153.298 196.609 153.364 196.476 153.463 196.37C153.536 196.296 153.623 196.239 153.72 196.202C153.817 196.164 153.921 196.149 154.024 196.155L156.676 196.255L155.308 194.049C155.233 193.929 155.194 193.79 155.193 193.649C155.195 193.548 155.217 193.449 155.258 193.356C155.299 193.264 155.358 193.18 155.431 193.111C155.574 192.969 155.767 192.889 155.969 192.888C156.099 192.89 156.225 192.929 156.334 193C156.443 193.07 156.529 193.17 156.584 193.288L157.899 195.663L159.198 193.303C159.259 193.177 159.354 193.07 159.472 192.995C159.59 192.919 159.726 192.876 159.867 192.873C159.964 192.872 160.06 192.892 160.149 192.932C160.238 192.972 160.317 193.03 160.382 193.103C160.453 193.175 160.509 193.26 160.547 193.354C160.586 193.447 160.605 193.548 160.605 193.649C160.602 193.782 160.565 193.911 160.497 194.026L159.105 196.255L161.811 196.155C161.911 196.145 162.011 196.157 162.106 196.189C162.201 196.221 162.287 196.273 162.36 196.341C162.433 196.41 162.49 196.493 162.528 196.586C162.566 196.678 162.584 196.778 162.58 196.878C162.582 197.067 162.513 197.251 162.388 197.393C162.316 197.464 162.229 197.52 162.133 197.556C162.038 197.591 161.936 197.607 161.834 197.6L159.121 197.516L160.466 199.707C160.542 199.829 160.582 199.97 160.581 200.114C160.579 200.215 160.557 200.314 160.516 200.407C160.475 200.499 160.416 200.583 160.343 200.652C160.276 200.724 160.195 200.782 160.106 200.821C160.016 200.861 159.919 200.882 159.82 200.883C159.69 200.881 159.562 200.84 159.455 200.766C159.347 200.692 159.263 200.589 159.213 200.468L157.922 198.161L156.645 200.468C156.588 200.592 156.496 200.698 156.38 200.771C156.264 200.845 156.129 200.884 155.992 200.883Z" fill="#263238"/>
<path d="M168.461 200.883C168.259 200.882 168.066 200.802 167.923 200.66C167.778 200.518 167.695 200.325 167.692 200.122C167.69 199.983 167.727 199.847 167.8 199.73L169.184 197.516L166.493 197.6C166.39 197.605 166.288 197.589 166.191 197.553C166.095 197.518 166.007 197.463 165.932 197.393C165.807 197.252 165.737 197.07 165.737 196.881C165.737 196.693 165.807 196.511 165.932 196.37C166.006 196.299 166.094 196.243 166.191 196.206C166.287 196.169 166.39 196.151 166.493 196.155L169.153 196.255L167.792 194.049C167.718 193.929 167.678 193.79 167.677 193.649C167.679 193.548 167.702 193.449 167.743 193.356C167.783 193.264 167.842 193.18 167.915 193.111C168.058 192.969 168.252 192.889 168.453 192.888C168.584 192.889 168.712 192.927 168.823 192.998C168.933 193.068 169.021 193.169 169.076 193.288L170.383 195.663L171.682 193.303C171.744 193.177 171.839 193.07 171.957 192.995C172.074 192.919 172.211 192.876 172.351 192.873C172.448 192.872 172.544 192.892 172.633 192.932C172.722 192.972 172.801 193.03 172.866 193.103C172.937 193.175 172.994 193.26 173.032 193.354C173.07 193.447 173.089 193.548 173.089 193.649C173.086 193.782 173.049 193.911 172.981 194.026L171.59 196.255L174.296 196.155C174.395 196.145 174.496 196.157 174.59 196.189C174.685 196.221 174.772 196.273 174.845 196.341C174.917 196.41 174.975 196.493 175.013 196.586C175.051 196.678 175.068 196.778 175.065 196.878C175.066 197.067 174.998 197.251 174.872 197.393C174.8 197.464 174.713 197.52 174.618 197.556C174.522 197.591 174.421 197.607 174.319 197.6L171.605 197.516L172.951 199.707C173.026 199.829 173.066 199.97 173.066 200.114C173.067 200.216 173.046 200.316 173.005 200.409C172.964 200.502 172.903 200.585 172.828 200.652C172.761 200.724 172.68 200.782 172.59 200.821C172.5 200.861 172.403 200.882 172.305 200.883C172.174 200.881 172.047 200.84 171.939 200.766C171.831 200.692 171.747 200.589 171.697 200.468L170.406 198.161L169.13 200.468C169.071 200.595 168.977 200.702 168.858 200.776C168.739 200.849 168.601 200.887 168.461 200.883Z" fill="#263238"/>
<path d="M180.93 200.883C180.729 200.882 180.535 200.802 180.392 200.66C180.273 200.539 180.197 200.383 180.176 200.214C180.156 200.046 180.191 199.876 180.277 199.73L181.653 197.516L178.962 197.6C178.86 197.605 178.757 197.589 178.661 197.553C178.564 197.518 178.476 197.463 178.401 197.393C178.276 197.252 178.207 197.07 178.207 196.881C178.207 196.693 178.276 196.511 178.401 196.37C178.475 196.299 178.563 196.243 178.66 196.206C178.756 196.169 178.859 196.151 178.962 196.155L181.622 196.255L180.254 194.049C180.179 193.929 180.139 193.79 180.139 193.649C180.141 193.446 180.224 193.253 180.369 193.111C180.512 192.969 180.706 192.889 180.907 192.888C181.038 192.889 181.166 192.927 181.277 192.998C181.387 193.068 181.475 193.169 181.53 193.288L182.837 195.663L184.136 193.303C184.198 193.177 184.292 193.07 184.41 192.995C184.528 192.919 184.665 192.876 184.805 192.873C184.903 192.872 185.001 192.892 185.091 192.932C185.181 192.972 185.262 193.03 185.328 193.103C185.469 193.249 185.546 193.446 185.543 193.649C185.54 193.782 185.503 193.911 185.435 194.026L184.044 196.255L186.75 196.155C186.849 196.145 186.95 196.157 187.044 196.189C187.139 196.221 187.226 196.273 187.299 196.341C187.371 196.41 187.429 196.493 187.467 196.586C187.505 196.678 187.522 196.778 187.518 196.878C187.52 197.067 187.452 197.251 187.326 197.393C187.254 197.464 187.167 197.52 187.072 197.556C186.976 197.591 186.874 197.607 186.773 197.6L184.059 197.516L185.404 199.707C185.48 199.829 185.52 199.97 185.52 200.114C185.52 200.216 185.5 200.316 185.458 200.409C185.417 200.502 185.357 200.585 185.281 200.652C185.215 200.724 185.134 200.782 185.044 200.821C184.954 200.861 184.857 200.882 184.759 200.883C184.628 200.881 184.501 200.84 184.393 200.766C184.285 200.692 184.201 200.589 184.151 200.468L182.86 198.161L181.584 200.468C181.526 200.592 181.434 200.698 181.318 200.771C181.202 200.845 181.068 200.884 180.93 200.883Z" fill="#263238"/>
<path d="M193.399 200.883C193.2 200.88 193.01 200.8 192.869 200.66C192.793 200.592 192.733 200.509 192.692 200.416C192.651 200.324 192.63 200.223 192.631 200.122C192.633 199.983 192.673 199.848 192.746 199.73L194.122 197.516L191.431 197.6C191.332 197.608 191.233 197.595 191.139 197.561C191.046 197.528 190.96 197.476 190.888 197.408C190.816 197.34 190.758 197.258 190.719 197.167C190.681 197.075 190.661 196.977 190.663 196.878C190.662 196.784 190.68 196.69 190.716 196.603C190.751 196.516 190.804 196.437 190.87 196.37C190.941 196.296 191.027 196.238 191.123 196.201C191.219 196.164 191.321 196.148 191.424 196.155L194.084 196.255L192.715 194.049C192.641 193.929 192.601 193.79 192.6 193.649C192.603 193.446 192.686 193.253 192.831 193.111C192.974 192.969 193.167 192.889 193.369 192.888C193.5 192.889 193.628 192.927 193.738 192.998C193.848 193.068 193.936 193.169 193.991 193.288L195.298 195.663L196.605 193.303C196.666 193.178 196.76 193.072 196.876 192.996C196.993 192.921 197.127 192.878 197.266 192.873C197.365 192.872 197.462 192.892 197.552 192.932C197.642 192.972 197.723 193.03 197.789 193.103C197.93 193.249 198.007 193.446 198.004 193.649C198.004 193.781 197.969 193.911 197.904 194.026L196.513 196.255L199.211 196.155C199.313 196.148 199.416 196.164 199.512 196.201C199.607 196.238 199.694 196.296 199.765 196.37C199.896 196.506 199.967 196.689 199.964 196.878C199.964 197.068 199.893 197.252 199.765 197.393C199.692 197.464 199.605 197.52 199.51 197.556C199.415 197.591 199.313 197.607 199.211 197.6L196.497 197.516L197.843 199.707C197.919 199.829 197.958 199.97 197.958 200.114C197.955 200.317 197.872 200.51 197.727 200.652C197.587 200.795 197.397 200.878 197.197 200.883C197.066 200.881 196.939 200.84 196.831 200.766C196.723 200.692 196.639 200.589 196.59 200.468L195.298 198.161L194.022 200.468C193.967 200.588 193.879 200.69 193.769 200.763C193.659 200.837 193.531 200.878 193.399 200.883Z" fill="#263238"/>
<g style="mix-blend-mode:multiply">
<path d="M232.182 45.1435H96.0996V53.6688H232.182V45.1435Z" fill="#DFC2FF"/>
</g>
<path d="M178.939 29.4381H149.343C148.809 29.4381 148.296 29.2259 147.919 28.8482C147.541 28.4705 147.329 27.9582 147.329 27.424C147.329 26.8898 147.541 26.3775 147.919 25.9998C148.296 25.6221 148.809 25.4099 149.343 25.4099H178.939C179.473 25.4099 179.986 25.6221 180.363 25.9998C180.741 26.3775 180.953 26.8898 180.953 27.424C180.953 27.9582 180.741 28.4705 180.363 28.8482C179.986 29.2259 179.473 29.4381 178.939 29.4381Z" fill="#DFC2FF" stroke="#263238" stroke-width="1.33739" stroke-linecap="round" stroke-linejoin="round"/>
<path d="M172.212 277.457C172.214 275.86 171.742 274.298 170.855 272.97C169.969 271.641 168.708 270.605 167.233 269.994C165.758 269.382 164.134 269.221 162.568 269.532C161.001 269.844 159.562 270.612 158.433 271.742C157.304 272.871 156.535 274.31 156.224 275.877C155.912 277.443 156.073 279.067 156.685 280.542C157.297 282.017 158.332 283.278 159.661 284.164C160.99 285.05 162.551 285.523 164.148 285.521C166.286 285.519 168.336 284.669 169.848 283.157C171.36 281.645 172.21 279.595 172.212 277.457Z" fill="#DFC2FF"/>
<path d="M168.238 273.367H160.059V281.547H168.238V273.367Z" fill="#DFC2FF" stroke="#263238" stroke-width="1.33739" stroke-linecap="round" stroke-linejoin="round"/>
<path d="M261.579 184.639C261.579 184.639 250.863 157.41 260.403 154.174C270.335 150.799 269.897 168.78 269.513 177.544C268.705 196.27 266.637 199.752 265.092 195.178L261.579 184.639ZM258.358 205.879C261.302 209.723 262.133 205.741 256.821 187.76C254.33 179.304 248.918 162.199 240.616 168.618C232.644 174.768 251.616 197.062 251.616 197.062L258.358 205.879ZM252.669 221.485C255.475 223.976 255.529 220.831 248.864 207.847C245.735 201.767 239.117 189.459 233.697 195.547C228.493 201.421 246.227 215.696 246.227 215.696L252.669 221.485ZM246.52 240.042C249.325 242.541 249.379 239.389 242.714 226.412C239.585 220.332 232.967 208.016 227.547 214.113C222.373 220.001 240.054 234.277 240.054 234.277L246.52 240.042ZM264.277 202.266C259.788 204.019 263.355 205.925 282.105 205.872C290.899 205.872 308.857 205.472 305.028 195.701C301.362 186.315 274.655 198.269 274.655 198.269L264.277 202.266ZM259.165 214.751C254.414 215.573 257.536 218.156 275.924 221.831C284.541 223.56 302.215 226.751 300.408 216.45C298.679 206.517 270.128 212.929 270.128 212.929L259.165 214.751ZM253.446 229.995C249.402 230.579 251.985 232.831 267.445 236.368C274.694 238.028 289.569 241.142 288.278 232.355C287.048 223.899 262.755 228.68 262.755 228.68L253.446 229.995ZM249.102 244.117C245.143 245.124 247.949 247.092 263.709 248.967C271.088 249.844 286.21 251.366 284.003 242.764C281.874 234.507 258.227 241.818 258.227 241.818L249.102 244.117ZM272.272 186.945C269.966 192.111 274.755 191.327 291.037 177.121C298.663 170.456 313.961 156.511 301.846 149.569C290.215 142.896 277.707 175.091 277.707 175.091L272.272 186.945ZM249.702 262.513C247.265 263.935 249.656 264.488 260.833 262.259C266.076 261.221 276.739 258.915 273.133 254.364C269.643 249.982 255.345 259.207 255.345 259.207L249.702 262.513Z" fill="#DFC2FF"/>
<path opacity="0.3" d="M261.579 184.639C261.579 184.639 250.863 157.41 260.403 154.174C270.335 150.799 269.897 168.78 269.513 177.544C268.705 196.27 266.637 199.752 265.092 195.178L261.579 184.639ZM258.358 205.879C261.302 209.723 262.133 205.741 256.821 187.76C254.33 179.304 248.918 162.199 240.616 168.618C232.644 174.768 251.616 197.062 251.616 197.062L258.358 205.879ZM252.669 221.485C255.475 223.976 255.529 220.831 248.864 207.847C245.735 201.767 239.117 189.459 233.697 195.547C228.493 201.421 246.227 215.696 246.227 215.696L252.669 221.485ZM246.52 240.042C249.325 242.541 249.379 239.389 242.714 226.412C239.585 220.332 232.967 208.016 227.547 214.113C222.373 220.001 240.054 234.277 240.054 234.277L246.52 240.042ZM264.277 202.266C259.788 204.019 263.355 205.925 282.105 205.872C290.899 205.872 308.857 205.472 305.028 195.701C301.362 186.315 274.655 198.269 274.655 198.269L264.277 202.266ZM259.165 214.751C254.414 215.573 257.536 218.156 275.924 221.831C284.541 223.56 302.215 226.751 300.408 216.45C298.679 206.517 270.128 212.929 270.128 212.929L259.165 214.751ZM253.446 229.995C249.402 230.579 251.985 232.831 267.445 236.368C274.694 238.028 289.569 241.142 288.278 232.355C287.048 223.899 262.755 228.68 262.755 228.68L253.446 229.995ZM249.102 244.117C245.143 245.124 247.949 247.092 263.709 248.967C271.088 249.844 286.21 251.366 284.003 242.764C281.874 234.507 258.227 241.818 258.227 241.818L249.102 244.117ZM272.272 186.945C269.966 192.111 274.755 191.327 291.037 177.121C298.663 170.456 313.961 156.511 301.846 149.569C290.215 142.896 277.707 175.091 277.707 175.091L272.272 186.945ZM249.702 262.513C247.265 263.935 249.656 264.488 260.833 262.259C266.076 261.221 276.739 258.915 273.133 254.364C269.643 249.982 255.345 259.207 255.345 259.207L249.702 262.513Z" fill="white"/>
<path d="M266.307 197.316L264.439 166.235ZM260.395 207.571L248.588 180.841ZM290.868 199.799L262.571 203.858ZM254.276 221.977L238.955 202.32ZM256.967 215.95L278.076 217.011ZM251.97 231.025L268.114 232.624ZM248.072 240.603L240.055 228.542ZM247.15 244.862L266.13 245.039ZM243.306 280.47C243.433 280.46 243.552 280.401 243.635 280.304C243.719 280.208 243.761 280.083 243.752 279.955C242.545 261.828 249.556 232.14 260.803 207.77C267.991 192.196 296.165 161.584 296.465 161.277C296.555 161.186 296.606 161.063 296.606 160.935C296.606 160.807 296.555 160.684 296.465 160.593C296.42 160.548 296.368 160.513 296.31 160.489C296.252 160.464 296.189 160.452 296.126 160.452C296.064 160.452 296.001 160.464 295.943 160.489C295.885 160.513 295.833 160.548 295.788 160.593C295.504 160.9 267.214 191.627 259.965 207.34C248.511 232.301 241.592 261.452 242.822 280.017C242.832 280.139 242.887 280.254 242.976 280.337C243.066 280.421 243.184 280.469 243.306 280.47ZM266.299 197.792C266.426 197.784 266.545 197.727 266.63 197.632C266.715 197.537 266.759 197.412 266.753 197.285L264.916 166.189C264.913 166.126 264.897 166.064 264.87 166.007C264.843 165.949 264.804 165.898 264.757 165.856C264.71 165.814 264.655 165.781 264.595 165.761C264.535 165.74 264.471 165.732 264.408 165.736C264.281 165.744 264.162 165.801 264.077 165.896C263.992 165.991 263.948 166.116 263.955 166.243L265.823 197.323C265.829 197.446 265.881 197.561 265.97 197.645C266.059 197.73 266.177 197.777 266.299 197.777V197.792ZM260.565 208.009C260.68 207.957 260.77 207.861 260.816 207.744C260.862 207.626 260.86 207.495 260.811 207.378L248.995 180.649C248.944 180.533 248.849 180.442 248.731 180.396C248.613 180.35 248.481 180.352 248.365 180.403C248.248 180.454 248.157 180.549 248.111 180.668C248.065 180.786 248.068 180.917 248.119 181.034L259.926 207.763C259.964 207.849 260.025 207.922 260.102 207.974C260.18 208.025 260.271 208.054 260.365 208.055C260.444 208.059 260.523 208.043 260.595 208.009H260.565ZM262.609 204.319L290.891 200.275C290.96 200.274 291.027 200.258 291.089 200.229C291.15 200.199 291.205 200.158 291.25 200.106C291.294 200.054 291.327 199.993 291.346 199.927C291.365 199.862 291.37 199.793 291.361 199.725C291.352 199.658 291.328 199.593 291.292 199.535C291.256 199.477 291.208 199.427 291.151 199.389C291.095 199.351 291.031 199.325 290.963 199.314C290.896 199.302 290.827 199.305 290.761 199.322L262.479 203.366C262.352 203.374 262.234 203.432 262.151 203.527C262.067 203.622 262.025 203.747 262.033 203.873C262.041 203.999 262.099 204.117 262.194 204.201C262.289 204.285 262.414 204.327 262.54 204.319H262.609ZM254.545 222.361C254.646 222.282 254.711 222.167 254.727 222.04C254.743 221.914 254.708 221.786 254.63 221.685L239.301 201.99C239.223 201.888 239.107 201.821 238.979 201.804C238.852 201.788 238.723 201.823 238.621 201.901C238.519 201.98 238.452 202.095 238.436 202.223C238.419 202.351 238.454 202.48 238.532 202.581L253.892 222.307C253.936 222.365 253.994 222.411 254.059 222.443C254.124 222.475 254.196 222.492 254.269 222.492C254.383 222.486 254.492 222.44 254.576 222.361H254.545ZM278.499 217.034C278.503 216.907 278.457 216.783 278.371 216.689C278.285 216.596 278.165 216.54 278.038 216.534L256.967 215.466C256.848 215.474 256.737 215.525 256.654 215.61C256.571 215.695 256.522 215.807 256.516 215.925C256.511 216.044 256.549 216.161 256.623 216.253C256.698 216.345 256.804 216.407 256.921 216.426L278.03 217.495C278.158 217.499 278.281 217.453 278.375 217.367C278.468 217.281 278.524 217.161 278.53 217.034H278.499ZM268.559 232.67C268.567 232.607 268.562 232.543 268.544 232.481C268.526 232.42 268.496 232.363 268.456 232.314C268.416 232.264 268.366 232.224 268.31 232.194C268.254 232.164 268.192 232.145 268.129 232.14L251.985 230.548C251.923 230.542 251.859 230.548 251.799 230.566C251.739 230.584 251.683 230.615 251.634 230.655C251.586 230.695 251.545 230.744 251.516 230.799C251.487 230.855 251.468 230.916 251.463 230.979C251.452 231.105 251.491 231.23 251.571 231.328C251.652 231.426 251.767 231.488 251.893 231.501L268.037 233.1H268.083C268.207 233.109 268.329 233.069 268.424 232.988C268.519 232.908 268.578 232.794 268.59 232.67H268.559ZM248.303 241.003C248.41 240.933 248.484 240.823 248.51 240.697C248.536 240.572 248.511 240.441 248.441 240.334L240.462 228.273C240.389 228.169 240.278 228.097 240.154 228.073C240.029 228.049 239.9 228.073 239.793 228.142C239.686 228.213 239.612 228.323 239.586 228.448C239.56 228.573 239.585 228.704 239.655 228.811L247.634 240.872C247.68 240.938 247.741 240.992 247.812 241.03C247.883 241.067 247.962 241.087 248.042 241.088C248.146 241.093 248.249 241.064 248.334 241.003H248.303ZM266.615 245.039C266.613 244.913 266.562 244.792 266.473 244.701C266.384 244.611 266.264 244.559 266.138 244.555L247.158 244.378C247.031 244.378 246.91 244.428 246.821 244.518C246.731 244.607 246.681 244.728 246.681 244.855C246.679 244.918 246.69 244.981 246.713 245.041C246.736 245.1 246.771 245.154 246.816 245.199C246.86 245.244 246.913 245.28 246.972 245.304C247.031 245.328 247.094 245.34 247.158 245.339L266.138 245.516C266.203 245.519 266.268 245.509 266.329 245.486C266.389 245.464 266.445 245.429 266.493 245.385C266.54 245.34 266.578 245.287 266.604 245.227C266.63 245.168 266.644 245.104 266.645 245.039H266.615ZM241.146 273.421C241.185 273.336 244.421 264.419 254.153 262.29C254.279 262.262 254.388 262.186 254.457 262.078C254.526 261.97 254.55 261.838 254.522 261.713C254.491 261.59 254.414 261.484 254.306 261.417C254.199 261.349 254.07 261.326 253.946 261.352C243.683 263.596 240.277 273.014 240.239 273.106C240.199 273.227 240.209 273.359 240.264 273.474C240.32 273.589 240.419 273.677 240.539 273.721H240.693C240.795 273.73 240.897 273.705 240.984 273.651C241.072 273.597 241.139 273.516 241.177 273.421H241.146ZM243.306 280.47C243.433 280.46 243.552 280.401 243.635 280.304C243.719 280.208 243.761 280.083 243.752 279.955C242.545 261.828 249.556 232.14 260.803 207.77C267.991 192.196 296.165 161.584 296.465 161.277C296.555 161.186 296.606 161.063 296.606 160.935C296.606 160.807 296.555 160.684 296.465 160.593C296.42 160.548 296.368 160.513 296.31 160.489C296.252 160.464 296.189 160.452 296.126 160.452C296.064 160.452 296.001 160.464 295.943 160.489C295.885 160.513 295.833 160.548 295.788 160.593C295.504 160.9 267.214 191.627 259.965 207.34C248.511 232.301 241.592 261.452 242.822 280.017C242.832 280.139 242.887 280.254 242.976 280.337C243.066 280.421 243.184 280.469 243.306 280.47ZM266.299 197.792C266.426 197.784 266.545 197.727 266.63 197.632C266.715 197.537 266.759 197.412 266.753 197.285L264.916 166.189C264.913 166.126 264.897 166.064 264.87 166.007C264.843 165.949 264.804 165.898 264.757 165.856C264.71 165.814 264.655 165.781 264.595 165.761C264.535 165.74 264.471 165.732 264.408 165.736C264.281 165.744 264.162 165.801 264.077 165.896C263.992 165.991 263.948 166.116 263.955 166.243L265.823 197.323C265.829 197.446 265.881 197.561 265.97 197.645C266.059 197.73 266.177 197.777 266.299 197.777V197.792ZM260.565 208.009C260.68 207.957 260.77 207.861 260.816 207.744C260.862 207.626 260.86 207.495 260.811 207.378L248.995 180.649C248.944 180.533 248.849 180.442 248.731 180.396C248.613 180.35 248.481 180.352 248.365 180.403C248.248 180.454 248.157 180.549 248.111 180.668C248.065 180.786 248.068 180.917 248.119 181.034L259.926 207.763C259.964 207.849 260.025 207.922 260.102 207.974C260.18 208.025 260.271 208.054 260.365 208.055C260.444 208.059 260.523 208.043 260.595 208.009H260.565ZM262.609 204.319L290.891 200.275C290.96 200.274 291.027 200.258 291.089 200.229C291.15 200.199 291.205 200.158 291.25 200.106C291.294 200.054 291.327 199.993 291.346 199.927C291.365 199.862 291.37 199.793 291.361 199.725C291.352 199.658 291.328 199.593 291.292 199.535C291.256 199.477 291.208 199.427 291.151 199.389C291.095 199.351 291.031 199.325 290.963 199.314C290.896 199.302 290.827 199.305 290.761 199.322L262.479 203.366C262.352 203.374 262.234 203.432 262.151 203.527C262.067 203.622 262.025 203.747 262.033 203.873C262.041 203.999 262.099 204.117 262.194 204.201C262.289 204.285 262.414 204.327 262.54 204.319H262.609ZM254.545 222.361C254.646 222.282 254.711 222.167 254.727 222.04C254.743 221.914 254.708 221.786 254.63 221.685L239.301 201.99C239.262 201.939 239.214 201.897 239.159 201.865C239.103 201.833 239.042 201.813 238.979 201.804C238.916 201.796 238.852 201.801 238.79 201.817C238.729 201.834 238.671 201.862 238.621 201.901C238.57 201.94 238.528 201.988 238.496 202.044C238.464 202.099 238.444 202.16 238.436 202.223C238.427 202.286 238.432 202.35 238.448 202.412C238.465 202.473 238.494 202.531 238.532 202.581L253.892 222.307C253.936 222.365 253.994 222.411 254.059 222.443C254.124 222.475 254.196 222.492 254.269 222.492C254.383 222.486 254.492 222.44 254.576 222.361H254.545ZM278.499 217.034C278.503 216.907 278.457 216.783 278.371 216.689C278.285 216.596 278.165 216.54 278.038 216.534L256.967 215.466C256.848 215.474 256.737 215.525 256.654 215.61C256.571 215.695 256.522 215.807 256.516 215.925C256.511 216.044 256.549 216.161 256.623 216.253C256.698 216.345 256.804 216.407 256.921 216.426L278.03 217.495C278.158 217.499 278.281 217.453 278.375 217.367C278.468 217.281 278.524 217.161 278.53 217.034H278.499ZM268.559 232.67C268.567 232.607 268.562 232.543 268.544 232.481C268.526 232.42 268.496 232.363 268.456 232.314C268.416 232.264 268.366 232.224 268.31 232.194C268.254 232.164 268.192 232.145 268.129 232.14L251.985 230.548C251.923 230.542 251.859 230.548 251.799 230.566C251.739 230.584 251.683 230.615 251.634 230.655C251.586 230.695 251.545 230.744 251.516 230.799C251.487 230.855 251.468 230.916 251.463 230.979C251.452 231.105 251.491 231.23 251.571 231.328C251.652 231.426 251.767 231.488 251.893 231.501L268.037 233.1H268.083C268.207 233.109 268.329 233.069 268.424 232.988C268.519 232.908 268.578 232.794 268.59 232.67H268.559ZM248.303 241.003C248.41 240.933 248.484 240.823 248.51 240.697C248.536 240.572 248.511 240.441 248.441 240.334L240.462 228.273C240.389 228.169 240.278 228.097 240.154 228.073C240.029 228.049 239.9 228.073 239.793 228.142C239.686 228.213 239.612 228.323 239.586 228.448C239.56 228.573 239.585 228.704 239.655 228.811L247.634 240.872C247.68 240.938 247.741 240.992 247.812 241.03C247.883 241.067 247.962 241.087 248.042 241.088C248.146 241.093 248.249 241.064 248.334 241.003H248.303ZM266.615 245.039C266.613 244.913 266.562 244.792 266.473 244.701C266.384 244.611 266.264 244.559 266.138 244.555L247.158 244.378C247.031 244.378 246.91 244.428 246.821 244.518C246.731 244.607 246.681 244.728 246.681 244.855C246.679 244.918 246.69 244.981 246.713 245.041C246.736 245.1 246.771 245.154 246.816 245.199C246.86 245.244 246.913 245.28 246.972 245.304C247.031 245.328 247.094 245.34 247.158 245.339L266.138 245.516C266.203 245.519 266.268 245.509 266.329 245.486C266.389 245.464 266.445 245.429 266.493 245.385C266.54 245.34 266.578 245.287 266.604 245.227C266.63 245.168 266.644 245.104 266.645 245.039H266.615ZM241.146 273.421C241.185 273.336 244.421 264.419 254.153 262.29C254.279 262.262 254.388 262.186 254.457 262.078C254.526 261.97 254.55 261.838 254.522 261.713C254.491 261.59 254.414 261.484 254.306 261.417C254.199 261.349 254.07 261.326 253.946 261.352C243.683 263.596 240.277 273.014 240.239 273.106C240.199 273.227 240.209 273.359 240.264 273.474C240.32 273.589 240.419 273.677 240.539 273.721H240.693C240.795 273.73 240.897 273.705 240.984 273.651C241.072 273.597 241.139 273.516 241.177 273.421H241.146Z" fill="#DFC2FF"/>
<path opacity="0.2" d="M266.307 197.316L264.439 166.235ZM260.395 207.571L248.588 180.841ZM290.868 199.799L262.571 203.858ZM254.276 221.977L238.955 202.32ZM256.967 215.95L278.076 217.011ZM251.97 231.025L268.114 232.624ZM248.072 240.603L240.055 228.542ZM247.15 244.862L266.13 245.039ZM243.306 280.47C243.433 280.46 243.552 280.401 243.635 280.304C243.719 280.208 243.761 280.083 243.752 279.955C242.545 261.828 249.556 232.14 260.803 207.77C267.991 192.196 296.165 161.584 296.465 161.277C296.555 161.186 296.606 161.063 296.606 160.935C296.606 160.807 296.555 160.684 296.465 160.593C296.42 160.548 296.368 160.513 296.31 160.489C296.252 160.464 296.189 160.452 296.126 160.452C296.064 160.452 296.001 160.464 295.943 160.489C295.885 160.513 295.833 160.548 295.788 160.593C295.504 160.9 267.214 191.627 259.965 207.34C248.511 232.301 241.592 261.452 242.822 280.017C242.832 280.139 242.887 280.254 242.976 280.337C243.066 280.421 243.184 280.469 243.306 280.47ZM266.299 197.792C266.426 197.784 266.545 197.727 266.63 197.632C266.715 197.537 266.759 197.412 266.753 197.285L264.916 166.189C264.913 166.126 264.897 166.064 264.87 166.007C264.843 165.949 264.804 165.898 264.757 165.856C264.71 165.814 264.655 165.781 264.595 165.761C264.535 165.74 264.471 165.732 264.408 165.736C264.281 165.744 264.162 165.801 264.077 165.896C263.992 165.991 263.948 166.116 263.955 166.243L265.823 197.323C265.829 197.446 265.881 197.561 265.97 197.645C266.059 197.73 266.177 197.777 266.299 197.777V197.792ZM260.565 208.009C260.68 207.957 260.77 207.861 260.816 207.744C260.862 207.626 260.86 207.495 260.811 207.378L248.995 180.649C248.944 180.533 248.849 180.442 248.731 180.396C248.613 180.35 248.481 180.352 248.365 180.403C248.248 180.454 248.157 180.549 248.111 180.668C248.065 180.786 248.068 180.917 248.119 181.034L259.926 207.763C259.964 207.849 260.025 207.922 260.102 207.974C260.18 208.025 260.271 208.054 260.365 208.055C260.444 208.059 260.523 208.043 260.595 208.009H260.565ZM262.609 204.319L290.891 200.275C290.96 200.274 291.027 200.258 291.089 200.229C291.15 200.199 291.205 200.158 291.25 200.106C291.294 200.054 291.327 199.993 291.346 199.927C291.365 199.862 291.37 199.793 291.361 199.725C291.352 199.658 291.328 199.593 291.292 199.535C291.256 199.477 291.208 199.427 291.151 199.389C291.095 199.351 291.031 199.325 290.963 199.314C290.896 199.302 290.827 199.305 290.761 199.322L262.479 203.366C262.352 203.374 262.234 203.432 262.151 203.527C262.067 203.622 262.025 203.747 262.033 203.873C262.041 203.999 262.099 204.117 262.194 204.201C262.289 204.285 262.414 204.327 262.54 204.319H262.609ZM254.545 222.361C254.646 222.282 254.711 222.167 254.727 222.04C254.743 221.914 254.708 221.786 254.63 221.685L239.301 201.99C239.223 201.888 239.107 201.821 238.979 201.804C238.852 201.788 238.723 201.823 238.621 201.901C238.519 201.98 238.452 202.095 238.436 202.223C238.419 202.351 238.454 202.48 238.532 202.581L253.892 222.307C253.936 222.365 253.994 222.411 254.059 222.443C254.124 222.475 254.196 222.492 254.269 222.492C254.383 222.486 254.492 222.44 254.576 222.361H254.545ZM278.499 217.034C278.503 216.907 278.457 216.783 278.371 216.689C278.285 216.596 278.165 216.54 278.038 216.534L256.967 215.466C256.848 215.474 256.737 215.525 256.654 215.61C256.571 215.695 256.522 215.807 256.516 215.925C256.511 216.044 256.549 216.161 256.623 216.253C256.698 216.345 256.804 216.407 256.921 216.426L278.03 217.495C278.158 217.499 278.281 217.453 278.375 217.367C278.468 217.281 278.524 217.161 278.53 217.034H278.499ZM268.559 232.67C268.567 232.607 268.562 232.543 268.544 232.481C268.526 232.42 268.496 232.363 268.456 232.314C268.416 232.264 268.366 232.224 268.31 232.194C268.254 232.164 268.192 232.145 268.129 232.14L251.985 230.548C251.923 230.542 251.859 230.548 251.799 230.566C251.739 230.584 251.683 230.615 251.634 230.655C251.586 230.695 251.545 230.744 251.516 230.799C251.487 230.855 251.468 230.916 251.463 230.979C251.452 231.105 251.491 231.23 251.571 231.328C251.652 231.426 251.767 231.488 251.893 231.501L268.037 233.1H268.083C268.207 233.109 268.329 233.069 268.424 232.988C268.519 232.908 268.578 232.794 268.59 232.67H268.559ZM248.303 241.003C248.41 240.933 248.484 240.823 248.51 240.697C248.536 240.572 248.511 240.441 248.441 240.334L240.462 228.273C240.389 228.169 240.278 228.097 240.154 228.073C240.029 228.049 239.9 228.073 239.793 228.142C239.686 228.213 239.612 228.323 239.586 228.448C239.56 228.573 239.585 228.704 239.655 228.811L247.634 240.872C247.68 240.938 247.741 240.992 247.812 241.03C247.883 241.067 247.962 241.087 248.042 241.088C248.146 241.093 248.249 241.064 248.334 241.003H248.303ZM266.615 245.039C266.613 244.913 266.562 244.792 266.473 244.701C266.384 244.611 266.264 244.559 266.138 244.555L247.158 244.378C247.031 244.378 246.91 244.428 246.821 244.518C246.731 244.607 246.681 244.728 246.681 244.855C246.679 244.918 246.69 244.981 246.713 245.041C246.736 245.1 246.771 245.154 246.816 245.199C246.86 245.244 246.913 245.28 246.972 245.304C247.031 245.328 247.094 245.34 247.158 245.339L266.138 245.516C266.203 245.519 266.268 245.509 266.329 245.486C266.389 245.464 266.445 245.429 266.493 245.385C266.54 245.34 266.578 245.287 266.604 245.227C266.63 245.168 266.644 245.104 266.645 245.039H266.615ZM241.146 273.421C241.185 273.336 244.421 264.419 254.153 262.29C254.279 262.262 254.388 262.186 254.457 262.078C254.526 261.97 254.55 261.838 254.522 261.713C254.491 261.59 254.414 261.484 254.306 261.417C254.199 261.349 254.07 261.326 253.946 261.352C243.683 263.596 240.277 273.014 240.239 273.106C240.199 273.227 240.209 273.359 240.264 273.474C240.32 273.589 240.419 273.677 240.539 273.721H240.693C240.795 273.73 240.897 273.705 240.984 273.651C241.072 273.597 241.139 273.516 241.177 273.421H241.146ZM243.306 280.47C243.433 280.46 243.552 280.401 243.635 280.304C243.719 280.208 243.761 280.083 243.752 279.955C242.545 261.828 249.556 232.14 260.803 207.77C267.991 192.196 296.165 161.584 296.465 161.277C296.555 161.186 296.606 161.063 296.606 160.935C296.606 160.807 296.555 160.684 296.465 160.593C296.42 160.548 296.368 160.513 296.31 160.489C296.252 160.464 296.189 160.452 296.126 160.452C296.064 160.452 296.001 160.464 295.943 160.489C295.885 160.513 295.833 160.548 295.788 160.593C295.504 160.9 267.214 191.627 259.965 207.34C248.511 232.301 241.592 261.452 242.822 280.017C242.832 280.139 242.887 280.254 242.976 280.337C243.066 280.421 243.184 280.469 243.306 280.47ZM266.299 197.792C266.426 197.784 266.545 197.727 266.63 197.632C266.715 197.537 266.759 197.412 266.753 197.285L264.916 166.189C264.913 166.126 264.897 166.064 264.87 166.007C264.843 165.949 264.804 165.898 264.757 165.856C264.71 165.814 264.655 165.781 264.595 165.761C264.535 165.74 264.471 165.732 264.408 165.736C264.281 165.744 264.162 165.801 264.077 165.896C263.992 165.991 263.948 166.116 263.955 166.243L265.823 197.323C265.829 197.446 265.881 197.561 265.97 197.645C266.059 197.73 266.177 197.777 266.299 197.777V197.792ZM260.565 208.009C260.68 207.957 260.77 207.861 260.816 207.744C260.862 207.626 260.86 207.495 260.811 207.378L248.995 180.649C248.944 180.533 248.849 180.442 248.731 180.396C248.613 180.35 248.481 180.352 248.365 180.403C248.248 180.454 248.157 180.549 248.111 180.668C248.065 180.786 248.068 180.917 248.119 181.034L259.926 207.763C259.964 207.849 260.025 207.922 260.102 207.974C260.18 208.025 260.271 208.054 260.365 208.055C260.444 208.059 260.523 208.043 260.595 208.009H260.565ZM262.609 204.319L290.891 200.275C290.96 200.274 291.027 200.258 291.089 200.229C291.15 200.199 291.205 200.158 291.25 200.106C291.294 200.054 291.327 199.993 291.346 199.927C291.365 199.862 291.37 199.793 291.361 199.725C291.352 199.658 291.328 199.593 291.292 199.535C291.256 199.477 291.208 199.427 291.151 199.389C291.095 199.351 291.031 199.325 290.963 199.314C290.896 199.302 290.827 199.305 290.761 199.322L262.479 203.366C262.352 203.374 262.234 203.432 262.151 203.527C262.067 203.622 262.025 203.747 262.033 203.873C262.041 203.999 262.099 204.117 262.194 204.201C262.289 204.285 262.414 204.327 262.54 204.319H262.609ZM254.545 222.361C254.646 222.282 254.711 222.167 254.727 222.04C254.743 221.914 254.708 221.786 254.63 221.685L239.301 201.99C239.262 201.939 239.214 201.897 239.159 201.865C239.103 201.833 239.042 201.813 238.979 201.804C238.916 201.796 238.852 201.801 238.79 201.817C238.729 201.834 238.671 201.862 238.621 201.901C238.57 201.94 238.528 201.988 238.496 202.044C238.464 202.099 238.444 202.16 238.436 202.223C238.427 202.286 238.432 202.35 238.448 202.412C238.465 202.473 238.494 202.531 238.532 202.581L253.892 222.307C253.936 222.365 253.994 222.411 254.059 222.443C254.124 222.475 254.196 222.492 254.269 222.492C254.383 222.486 254.492 222.44 254.576 222.361H254.545ZM278.499 217.034C278.503 216.907 278.457 216.783 278.371 216.689C278.285 216.596 278.165 216.54 278.038 216.534L256.967 215.466C256.848 215.474 256.737 215.525 256.654 215.61C256.571 215.695 256.522 215.807 256.516 215.925C256.511 216.044 256.549 216.161 256.623 216.253C256.698 216.345 256.804 216.407 256.921 216.426L278.03 217.495C278.158 217.499 278.281 217.453 278.375 217.367C278.468 217.281 278.524 217.161 278.53 217.034H278.499ZM268.559 232.67C268.567 232.607 268.562 232.543 268.544 232.481C268.526 232.42 268.496 232.363 268.456 232.314C268.416 232.264 268.366 232.224 268.31 232.194C268.254 232.164 268.192 232.145 268.129 232.14L251.985 230.548C251.923 230.542 251.859 230.548 251.799 230.566C251.739 230.584 251.683 230.615 251.634 230.655C251.586 230.695 251.545 230.744 251.516 230.799C251.487 230.855 251.468 230.916 251.463 230.979C251.452 231.105 251.491 231.23 251.571 231.328C251.652 231.426 251.767 231.488 251.893 231.501L268.037 233.1H268.083C268.207 233.109 268.329 233.069 268.424 232.988C268.519 232.908 268.578 232.794 268.59 232.67H268.559ZM248.303 241.003C248.41 240.933 248.484 240.823 248.51 240.697C248.536 240.572 248.511 240.441 248.441 240.334L240.462 228.273C240.389 228.169 240.278 228.097 240.154 228.073C240.029 228.049 239.9 228.073 239.793 228.142C239.686 228.213 239.612 228.323 239.586 228.448C239.56 228.573 239.585 228.704 239.655 228.811L247.634 240.872C247.68 240.938 247.741 240.992 247.812 241.03C247.883 241.067 247.962 241.087 248.042 241.088C248.146 241.093 248.249 241.064 248.334 241.003H248.303ZM266.615 245.039C266.613 244.913 266.562 244.792 266.473 244.701C266.384 244.611 266.264 244.559 266.138 244.555L247.158 244.378C247.031 244.378 246.91 244.428 246.821 244.518C246.731 244.607 246.681 244.728 246.681 244.855C246.679 244.918 246.69 244.981 246.713 245.041C246.736 245.1 246.771 245.154 246.816 245.199C246.86 245.244 246.913 245.28 246.972 245.304C247.031 245.328 247.094 245.34 247.158 245.339L266.138 245.516C266.203 245.519 266.268 245.509 266.329 245.486C266.389 245.464 266.445 245.429 266.493 245.385C266.54 245.34 266.578 245.287 266.604 245.227C266.63 245.168 266.644 245.104 266.645 245.039H266.615ZM241.146 273.421C241.185 273.336 244.421 264.419 254.153 262.29C254.279 262.262 254.388 262.186 254.457 262.078C254.526 261.97 254.55 261.838 254.522 261.713C254.491 261.59 254.414 261.484 254.306 261.417C254.199 261.349 254.07 261.326 253.946 261.352C243.683 263.596 240.277 273.014 240.239 273.106C240.199 273.227 240.209 273.359 240.264 273.474C240.32 273.589 240.419 273.677 240.539 273.721H240.693C240.795 273.73 240.897 273.705 240.984 273.651C241.072 273.597 241.139 273.516 241.177 273.421H241.146Z" fill="black"/>
<path d="M255.86 266.917H234.097V271.422H235.995L239.924 295.999H250.033L253.961 271.422H255.86V266.917Z" fill="#DFC2FF"/>
<path opacity="0.3" d="M255.86 266.917H234.097V271.422H235.995L239.924 295.999H250.033L253.961 271.422H255.86V266.917Z" fill="white"/>
<path d="M59.9223 130.696L34.6077 122.432L32.3553 116.482L27.2124 116.321L17.8799 114.553L19.0022 116.482L30.7486 125.008L33.6468 126.453L60.1222 140.283L59.9223 130.696Z" fill="white" stroke="#263238" stroke-width="1.00396" stroke-miterlimit="10"/>
<path d="M32.3554 116.482L29.9416 115.037L25.1216 116.805L25.9211 117.766L32.3554 116.482Z" fill="white" stroke="#263238" stroke-width="1.00396" stroke-linejoin="round"/>
<path d="M59.9223 130.696L34.6077 122.432L32.3553 116.482L27.2124 116.321L17.8799 114.553L19.0022 116.482L30.7486 125.008L33.6468 126.453L60.1222 140.283L59.9223 130.696Z" fill="white"/>
<mask id="mask0_1526_6856" style="mask-type:luminance" maskUnits="userSpaceOnUse" x="17" y="114" width="44" height="27">
<path d="M59.9223 130.697L34.6077 122.433L32.3553 116.483L27.2124 116.322L17.8799 114.554L19.0022 116.483L30.7486 125.009L33.6468 126.454L60.1222 140.283L59.9223 130.697Z" fill="white"/>
</mask>
<g mask="url(#mask0_1526_6856)">
<path opacity="0.5" d="M59.9223 130.697L34.6077 122.433L32.3553 116.483L27.2124 116.322L17.8799 114.554L19.0022 116.483L30.7486 125.009L33.6468 126.454L60.1222 140.283L59.9223 130.697Z" fill="#DFC2FF" stroke="#263238" stroke-width="1.00396" stroke-miterlimit="10"/>
</g>
<path d="M59.9223 130.696L34.6077 122.432L32.3553 116.482L27.2124 116.321L17.8799 114.553L19.0022 116.482L30.7486 125.008L33.6468 126.453L60.1222 140.283L59.9223 130.696Z" stroke="#263238" stroke-width="1.00396" stroke-miterlimit="10"/>
<path d="M32.3554 116.482L29.9416 115.037L25.1216 116.805L25.9211 117.766L32.3554 116.482Z" fill="white"/>
<mask id="mask1_1526_6856" style="mask-type:luminance" maskUnits="userSpaceOnUse" x="25" y="115" width="8" height="3">
<path d="M32.354 116.483L29.9401 115.038L25.1201 116.806L25.9196 117.767L32.354 116.483Z" fill="white"/>
</mask>
<g mask="url(#mask1_1526_6856)">
<path opacity="0.5" d="M32.354 116.483L29.9401 115.038L25.1201 116.806L25.9196 117.767L32.354 116.483Z" fill="#DFC2FF" stroke="#263238" stroke-width="1.00396" stroke-linejoin="round"/>
</g>
<path d="M32.3554 116.482L29.9416 115.037L25.1216 116.805L25.9211 117.766L32.3554 116.482Z" stroke="#263238" stroke-width="1.00396" stroke-linejoin="round"/>
<path d="M65.296 77.0614C65.296 77.0614 64.904 80.5207 65.8803 82.7424C66.8566 84.964 72.2762 92.49 72.2762 92.49L62.1595 100.6C62.1595 100.6 57.9622 92.1441 57.1627 90.7757C56.3632 89.4074 55.4023 83.5188 58.0084 79.2984C60.6144 75.078 64.3658 73.9403 65.296 77.0614Z" fill="white"/>
<mask id="mask2_1526_6856" style="mask-type:luminance" maskUnits="userSpaceOnUse" x="56" y="75" width="17" height="26">
<path d="M65.2965 77.0618C65.2965 77.0618 64.9044 80.5211 65.8807 82.7428C66.857 84.9645 72.2767 92.4904 72.2767 92.4904L62.16 100.601C62.16 100.601 57.9627 92.1445 57.1632 90.7761C56.3637 89.4078 55.4028 83.5192 58.0088 79.2988C60.6149 75.0785 64.3663 73.9407 65.2965 77.0618Z" fill="white"/>
</mask>
<g mask="url(#mask2_1526_6856)">
<g style="mix-blend-mode:multiply" opacity="0.5">
<path d="M60.0993 88.1776L64.4888 97.2794L62.1518 100.608L57.7393 92.7285L60.0993 88.1776Z" fill="#DFC2FF"/>
</g>
</g>
<path d="M65.296 77.0614C65.296 77.0614 64.904 80.5207 65.8803 82.7424C66.8566 84.964 72.2762 92.49 72.2762 92.49L62.1595 100.6C62.1595 100.6 57.9622 92.1441 57.1627 90.7757C56.3632 89.4074 55.4023 83.5188 58.0084 79.2984C60.6144 75.078 64.3658 73.9403 65.296 77.0614Z" stroke="#263238" stroke-width="1.00396" stroke-miterlimit="10"/>
<path d="M68.4325 70.7269C67.8098 66.8832 63.405 59.0651 56.4171 59.3649C51.8815 59.5648 49.7598 60.4796 47.7918 61.5942C46.1877 62.5394 44.6924 63.6582 43.3331 64.9306C39.9199 69.028 38.7207 70.1503 39.3818 73.2868C39.3276 74.5378 39.5236 75.7871 39.9583 76.9614C41.0038 79.7519 41.7188 81.5738 42.6259 82.9037C42.3491 84.2029 41.6265 87.6315 41.5881 88.4156C41.5496 89.1997 43.8943 88.6539 45.0782 88.3541C47.2768 93.2741 51.305 96.6873 52.558 97.0793C54.7412 97.7635 58.1929 94.1735 60.0225 91.3906C61.8521 88.6078 60.4684 85.479 60.4761 84.2337C60.4837 82.9883 64.5888 80.2516 66.1109 79.3829C67.633 78.5142 69.0475 74.5629 68.4325 70.7269Z" fill="white"/>
<mask id="mask3_1526_6856" style="mask-type:luminance" maskUnits="userSpaceOnUse" x="39" y="59" width="30" height="39">
<path d="M68.4311 70.7277C67.8084 66.884 63.4035 59.0659 56.4156 59.3657C51.8801 59.5656 49.7583 60.4804 47.7904 61.5951C46.1862 62.5402 44.691 63.6591 43.3317 64.9314C39.9184 69.0288 38.7192 70.1512 39.3803 73.2876C39.3261 74.5387 39.5221 75.7879 39.9569 76.9622C41.0024 79.7528 41.7173 81.5747 42.6244 82.9046C42.3477 84.2038 41.6251 87.6324 41.5866 88.4165C41.5482 89.2006 43.8928 88.6548 45.0767 88.355C47.2753 93.2749 51.3035 96.6881 52.5566 97.0802C54.7398 97.7644 58.1914 94.1743 60.021 91.3915C61.8506 88.6087 60.4669 85.4799 60.4746 84.2345C60.4823 82.9892 64.5874 80.2524 66.1095 79.3838C67.6316 78.5151 69.0461 74.5638 68.4311 70.7277Z" fill="white"/>
</mask>
<g mask="url(#mask3_1526_6856)">
<g style="mix-blend-mode:multiply" opacity="0.5">
<path d="M39.4113 73.287C39.3571 74.5381 39.5531 75.7873 39.9879 76.9616C41.0334 79.7521 41.7483 81.5741 42.6554 82.904C42.3787 84.2032 41.656 87.6317 41.6176 88.4159C41.5792 89.2 43.9238 88.6542 45.1077 88.3544C47.3063 93.2743 51.3345 96.6875 52.5875 97.0796C54.7708 97.7638 58.2224 94.1737 60.052 91.3909C60.5091 90.6961 60.8059 89.9083 60.9207 89.0847C60.8208 88.7234 60.7516 88.5004 60.7516 88.5004C60.7516 88.5004 59.7215 92.4594 57.6766 91.9444C55.6318 91.4293 52.503 87.3319 50.7579 85.9175C49.0129 84.503 49.7278 82.6426 49.3819 80.5363C49.036 78.4299 43.87 76.5772 43.5241 75.3703C43.1782 74.1634 44.3851 69.1666 44.3851 69.1666C44.3851 69.1666 46.3454 66.5529 45.9226 67.6291C45.6237 68.5623 45.5153 69.546 45.6038 70.5218C45.6923 71.4977 45.9758 72.4459 46.4376 73.3101C46.7617 73.992 47.2757 74.5659 47.918 74.9627C48.5603 75.3595 49.3035 75.5625 50.0584 75.5471L51.9341 66.2531L47.9751 62.9782L43.3627 64.9001C39.9187 69.0282 38.7425 70.1506 39.4113 73.287Z" fill="#DFC2FF"/>
</g>
</g>
<path d="M68.4325 70.7269C67.8098 66.8832 63.405 59.0651 56.4171 59.3649C51.8815 59.5648 49.7598 60.4796 47.7918 61.5942C46.1877 62.5394 44.6924 63.6582 43.3331 64.9306C39.9199 69.028 38.7207 70.1503 39.3818 73.2868C39.3276 74.5378 39.5236 75.7871 39.9583 76.9614C41.0038 79.7519 41.7188 81.5738 42.6259 82.9037C42.3491 84.2029 41.6265 87.6315 41.5881 88.4156C41.5496 89.1997 43.8943 88.6539 45.0782 88.3541C47.2768 93.2741 51.305 96.6873 52.558 97.0793C54.7412 97.7635 58.1929 94.1735 60.0225 91.3906C61.8521 88.6078 60.4684 85.479 60.4761 84.2337C60.4837 82.9883 64.5888 80.2516 66.1109 79.3829C67.633 78.5142 69.0475 74.5629 68.4325 70.7269Z" stroke="#263238" stroke-miterlimit="10"/>
<path d="M43.5791 80.5822L44.3478 82.7808C44.3478 82.7808 46.0006 83.3266 48.0147 81.128" stroke="#263238" stroke-miterlimit="10" stroke-linecap="round"/>
<path d="M49.2603 90.8526C49.2603 90.8526 51.0899 90.6681 51.8279 88.1005" stroke="#263238" stroke-miterlimit="10" stroke-linecap="round"/>
<path d="M42.2954 78.7449C42.2954 78.7449 42.8412 77.0921 46.1391 77.0921" stroke="#263238" stroke-miterlimit="10" stroke-linecap="round"/>
<path d="M59.1999 56.3053C56.8036 55.9607 54.387 55.7758 51.9661 55.7518C51.9661 55.7518 44.7246 51.5776 37.7674 56.0286C30.8103 60.4796 34.1544 68.2746 34.1544 70.2195C34.1544 72.1645 31.925 72.1721 33.3164 74.6782C34.7079 77.1843 39.4126 75.8006 39.4126 75.8006C39.4623 74.8554 39.7121 73.9315 40.1454 73.09C40.5787 72.2485 41.1858 71.5086 41.9263 70.9191C44.4324 68.9742 46.4312 68.5514 47.2614 69.1125C47.2614 69.1125 46.7079 73.2868 47.5381 74.955C47.5381 74.955 50.321 76.3464 51.1589 76.3464C51.9968 76.3464 50.6131 77.5226 53.3883 78.5681C53.8939 78.7496 54.4347 78.8115 54.9682 78.7488C55.5018 78.6861 56.0135 78.5006 56.4632 78.2068C56.8707 76.5155 57.7624 73.971 59.4229 74.5629C61.8598 75.4316 64.0815 81.4278 60.7836 83.4726C64.7503 84.1952 69.5549 77.1766 69.8393 70.7807C70.1238 64.3848 63.3204 57.0279 59.1999 56.3053Z" fill="#263238"/>
<path d="M47.3843 66.3681C47.3843 66.3681 49.4291 65.2688 51.9352 67.6212C54.4413 69.9735 59.3151 73.1177 65.7726 71.388" stroke="white" stroke-width="0.5" stroke-linecap="round" stroke-linejoin="round"/>
<path d="M47.1001 64.4847C47.1001 64.4847 48.5069 62.2861 50.8592 62.2861C53.2116 62.2861 58.7081 65.584 63.0976 65.584" stroke="white" stroke-width="0.5" stroke-linecap="round" stroke-linejoin="round"/>
<path d="M45.501 68.7205C45.501 68.7205 42.8335 65.4303 40.3274 68.0978C37.8213 70.7653 39.4126 73.2868 39.4126 73.2868" stroke="white" stroke-width="0.5" stroke-linecap="round" stroke-linejoin="round"/>
<path d="M34.8384 70.9191C36.367 69.5405 37.3173 67.6345 37.4982 65.584C37.8134 62.1324 42.5258 59.1497 45.5008 61.9786" stroke="white" stroke-width="0.5" stroke-linecap="round" stroke-linejoin="round"/>
<path d="M39.6968 58.3656C39.6968 58.3656 44.4092 53.8146 48.3297 59.6186" stroke="white" stroke-width="0.5" stroke-linecap="round" stroke-linejoin="round"/>
<path d="M78.0494 282.123C78.0494 282.123 80.9476 286.628 80.6247 289.526L80.3095 292.424C80.3095 292.424 69.6779 295.338 67.4254 295.338C65.173 295.338 53.2499 294.208 53.2499 294.208L52.7348 292.163C52.6987 292.012 52.7157 291.853 52.7829 291.713C52.8501 291.573 52.9634 291.46 53.1038 291.394L63.7355 286.436L67.0872 282.769L78.0494 282.123Z" fill="white" stroke="#263238" stroke-width="1.00396" stroke-miterlimit="10"/>
<path d="M69.0398 293.07C71.9226 293.293 77.396 291.533 80.5709 290.41L80.348 292.424C80.348 292.424 69.6779 295.338 67.4254 295.338C65.173 295.338 53.2499 294.208 53.2499 294.208L52.8809 292.747C54.7873 292.755 65.2268 292.778 69.0398 293.07Z" fill="#DFC2FF" stroke="#263238" stroke-width="1.00396" stroke-miterlimit="10"/>
<path d="M63.7509 286.436L48.2761 293.17C48.2761 293.17 46.9539 296.483 48.2761 297.144C49.5984 297.805 78.4262 297.144 78.4262 297.144C78.4262 297.144 80.4172 291.909 77.2731 288.396C74.1289 284.883 63.7509 286.436 63.7509 286.436Z" fill="white" stroke="#263238" stroke-width="1.00396" stroke-miterlimit="10"/>
<path d="M78.4259 297.144C78.4259 297.144 49.5981 297.805 48.2759 297.144C47.6378 296.821 47.6148 295.891 47.7608 295.007H78.9333C78.8314 295.734 78.6615 296.449 78.4259 297.144Z" fill="#DFC2FF" stroke="#263238" stroke-width="1.00396" stroke-miterlimit="10"/>
<path d="M56.4326 169.426C56.4326 169.426 52.389 187.345 50.8592 198.553C49.3295 209.761 48.43 232.216 48.7529 234.792C49.0758 237.367 65.1732 280.516 65.1732 280.516L66.7799 284.36L78.0496 282.108C78.0496 282.108 72.8991 265.687 70.9695 256.67C69.04 247.653 64.8196 232.839 64.8196 230.264C64.8196 227.689 74.8132 178.504 75.5282 175.276C76.2431 172.047 79.4872 167.089 79.4872 167.089L57.9086 166.65L56.4326 169.426Z" fill="#DFC2FF" stroke="#263238" stroke-width="1.00396" stroke-miterlimit="10"/>
<path d="M56.4327 169.426C56.4327 169.426 54.0649 185.792 55.0412 197.169C56.0175 208.547 58.1162 232.77 58.1162 236.375C58.1162 239.981 63.9356 261.513 64.2661 268.278C64.7812 278.049 64.0586 282.884 64.0586 282.884L63.7126 286.428C63.7126 286.428 70.5006 287.397 71.9843 287.819C73.6979 288.261 75.4664 288.452 77.2348 288.388C77.2348 288.388 79.7025 277.526 79.7025 268.27C79.7025 259.015 77.6499 239.965 76.6275 232.247C75.6051 224.529 78.8261 194.756 80.6557 189.198C82.4853 183.64 86.4827 171.87 83.7922 165.859C81.1016 159.847 56.4327 169.426 56.4327 169.426Z" fill="#DFC2FF" stroke="#263238" stroke-width="1.00396" stroke-miterlimit="10"/>
<path d="M86.7824 162.845L86.5364 170.164C86.5364 170.164 82.1546 171.032 76.2507 172.055C71.3768 172.9 59.1385 171.832 55.018 171.432C54.6425 171.399 54.2954 171.219 54.0521 170.931C53.8088 170.643 53.689 170.27 53.7188 169.895L54.1186 163.283L86.7824 162.845Z" fill="#263238"/>
<path d="M69.6549 89.8916C69.6549 89.8916 62.7362 97.3715 60.1302 102.022C57.5242 106.673 56.4941 113.799 55.5178 119.411C54.5415 125.023 57.1859 138.199 56.4403 144.249L54.0802 163.306C54.0802 163.306 53.5729 164.598 55.2718 166.012C56.9707 167.427 65.2654 167.942 72.7606 168.319C75.4974 168.457 83.6691 166.697 85.0067 166.612C86.621 166.512 86.6749 164.46 86.744 162.845C87.0669 155.258 88.4353 135.032 89.3347 126.222C91.1874 108.257 81.0477 90.914 69.6549 89.8916Z" fill="white" stroke="#263238" stroke-width="1.00396" stroke-miterlimit="10"/>
<g style="mix-blend-mode:multiply">
<path d="M88.4888 136.439C88.7963 132.449 89.1038 128.828 89.3729 126.222C89.4498 125.454 89.4959 124.685 89.5343 123.916L71.1537 126.991L55.3638 121.61C55.3655 124.877 55.5503 128.142 55.9173 131.388L71.4074 135.724L88.4888 136.439Z" fill="#DFC2FF"/>
</g>
<g style="mix-blend-mode:multiply">
<path d="M68.9708 90.645C67.9253 91.8058 65.8497 94.1659 63.874 96.672L75.5435 108.534L79.3872 106.996L68.9708 90.645Z" fill="#DFC2FF"/>
</g>
<path d="M69.655 89.8916C69.655 89.8916 62.7363 97.3715 60.1302 102.022C59.3575 103.436 58.7316 104.925 58.2622 106.466L72.1764 90.3913C71.3544 90.1423 70.5098 89.9749 69.655 89.8916Z" fill="#263238"/>
<g style="mix-blend-mode:multiply">
<path d="M56.0557 116.382L71.1537 121.349L89.4882 119.242C89.2009 114.675 88.1862 110.183 86.4824 105.935L71.6995 111.862L58.4849 105.874C57.4043 109.309 56.5922 112.822 56.0557 116.382Z" fill="#DFC2FF"/>
</g>
<g style="mix-blend-mode:multiply">
<path d="M82.047 155.258C74.3893 156.543 66.532 155.901 59.1846 153.39L55.5024 152.129L54.3569 161.354L58.5543 162.53C66.5336 164.761 74.8733 165.403 83.1002 164.421L86.4903 164.014C86.6667 163.64 86.7661 163.235 86.7824 162.822C86.8747 160.77 87.0361 157.787 87.2437 154.366L82.047 155.258Z" fill="#DFC2FF"/>
</g>
<g style="mix-blend-mode:multiply">
<path d="M84.0993 142.697C76.4413 143.987 68.5821 143.342 61.2369 140.821L56.5476 139.214C56.6639 140.889 56.6408 142.571 56.4784 144.242L55.9326 148.677L60.6066 149.984C68.5828 152.217 76.92 152.863 85.1448 151.883L87.451 151.606C87.6432 148.531 87.8661 145.256 88.1044 142.02L84.0993 142.697Z" fill="#DFC2FF"/>
</g>
<path d="M11.9769 110.188L26.8408 122.139L27.4815 121.342L12.6176 109.391L11.9769 110.188Z" fill="#263238"/>
<path d="M76.8118 98.1863C76.8118 98.1863 82.2622 101.899 82.3852 110.671C82.439 114.514 82.0392 118.104 81.1552 124.4C80.2711 130.696 74.7823 151.199 70.5081 153.689C66.2339 156.18 59.5997 151.475 59.5997 151.475L27.5124 130.174L19.7558 123.908L15.9121 116.652L17.119 114.345L26.5822 121.602L21.4855 116.89L22.4848 115.621L24.3298 116.905L29.711 118.919L30.8872 126.607L32.5477 127.744L63.2435 138.96C63.2435 138.96 62.8591 122.44 63.1436 119.281C63.428 116.121 63.8201 108.18 67.2025 102.422" fill="white"/>
<mask id="mask4_1526_6856" style="mask-type:luminance" maskUnits="userSpaceOnUse" x="15" y="98" width="68" height="57">
<path d="M76.8133 98.1866C76.8133 98.1866 82.2636 101.9 82.3866 110.671C82.4404 114.515 82.0407 118.105 81.1567 124.401C80.2726 130.697 74.7838 151.199 70.5096 153.69C66.2354 156.18 59.6011 151.476 59.6011 151.476L27.5139 130.174L19.7573 123.909L15.9136 116.652L17.1205 114.346L26.5837 121.602L21.4869 116.89L22.4863 115.622L24.3313 116.905L29.7125 118.92L30.8887 126.607L32.5491 127.745L63.245 138.961C63.245 138.961 62.8606 122.44 63.145 119.281C63.4295 116.121 63.8215 108.18 67.204 102.422" fill="white"/>
</mask>
<g mask="url(#mask4_1526_6856)">
<g style="mix-blend-mode:multiply" opacity="0.5">
<path d="M63.0288 126.476C63.0288 132.18 63.221 138.96 63.221 138.96L32.5559 127.791L30.8954 126.653L29.7192 118.965L24.338 116.951L22.5007 115.644L21.5014 116.913L26.5827 121.602L17.1195 114.345L15.9741 116.613L19.8178 123.87L27.5744 130.174L29.527 131.473L71.9231 145.133L63.0288 126.476Z" fill="#DFC2FF"/>
</g>
</g>
<path d="M76.8118 98.1863C76.8118 98.1863 82.2622 101.899 82.3852 110.671C82.439 114.514 82.0392 118.104 81.1552 124.4C80.2711 130.696 74.7823 151.199 70.5081 153.689C66.2339 156.18 59.5997 151.475 59.5997 151.475L27.5124 130.174L19.7558 123.908L15.9121 116.652L17.119 114.345L26.5822 121.602L21.4855 116.89L22.4848 115.621L24.3298 116.905L29.711 118.919L30.8872 126.607L32.5477 127.744L63.2435 138.96C63.2435 138.96 62.8591 122.44 63.1436 119.281C63.428 116.121 63.8201 108.18 67.2025 102.422" stroke="#263238" stroke-width="1.00396" stroke-miterlimit="10"/>
<path d="M63.2433 138.96L74.9589 147.417L77.9955 142.035C77.9955 142.035 80.0941 140.383 80.4016 139.137C80.7091 137.892 80.3171 135.87 80.6322 134.625C80.9474 133.379 82.5157 132.211 82.6617 129.197C82.8078 126.184 82.6617 123.67 82.6617 123.67C82.6617 123.67 85.1986 113.238 84.9218 108.703C84.6451 104.167 80.2709 96.1492 76.7655 95.9724C73.26 95.7956 68.7014 96.326 65.1652 101.676C61.629 107.027 62.3516 122.648 61.7981 123.624C61.2446 124.6 62.0133 129.42 62.0133 129.42C61.7061 129.649 61.4512 129.941 61.2656 130.277C61.0801 130.612 60.9681 130.983 60.9371 131.365C60.8756 132.618 62.2286 135.701 62.2286 135.701L63.2433 138.96Z" fill="white" stroke="#263238" stroke-width="1.00396" stroke-miterlimit="10"/>
<g style="mix-blend-mode:multiply">
<path d="M62.1055 119.611C62.1296 120.953 62.0292 122.293 61.8057 123.616C61.3137 124.493 61.8749 128.452 61.9979 129.259C68.5874 131.306 75.5552 131.831 82.3772 130.796C82.5238 130.262 82.6114 129.713 82.6386 129.159C82.7923 126.153 82.6386 123.632 82.6386 123.632C82.6386 123.632 82.8615 122.701 83.169 121.287C76.1038 121.736 69.0108 121.172 62.1055 119.611Z" fill="#DFC2FF"/>
</g>
<g style="mix-blend-mode:multiply">
<path d="M64.6885 102.53C63.5892 104.736 62.9742 108.049 62.6206 111.409C69.5993 114.072 77.1236 114.988 84.5374 114.076C84.8332 112.298 84.9645 110.497 84.9295 108.695C84.7964 107.271 84.4598 105.873 83.9301 104.544C77.4566 104.695 70.9904 104.018 64.6885 102.53Z" fill="#DFC2FF"/>
</g>
<path d="M62.2285 135.785L63.2202 138.96L74.9358 147.417L77.9723 142.035C77.9723 142.035 80.071 140.383 80.3785 139.137C80.4334 138.921 80.4668 138.699 80.4784 138.476C74.3046 138.369 68.1704 137.465 62.2285 135.785Z" fill="#263238"/>
<path d="M70.708 287.72C70.708 287.72 70.9694 281.062 72.2455 271.33C73.5216 261.598 70.4543 247.776 69.9393 245.47C69.4242 243.163 70.2006 238.043 69.6856 236.245C69.1705 234.446 66.6798 226.774 68.1481 217.872C69.6164 208.97 70.8079 185.439 70.8079 185.439C70.8079 185.439 67.1103 182.433 66.0264 178.52C64.9424 174.607 65.7727 173.377 65.7727 173.377" stroke="#263238" stroke-width="1.00396" stroke-miterlimit="10"/>
<path d="M72.4222 173.738L71 181.61" stroke="#263238" stroke-width="1.00396" stroke-miterlimit="10"/>
</svg>
