<svg width="312" height="312" viewBox="0 0 312 312" fill="none" xmlns="http://www.w3.org/2000/svg">
<mask id="mask0_1477_4507" style="mask-type:alpha" maskUnits="userSpaceOnUse" x="0" y="0" width="312" height="312">
<rect width="312" height="312" rx="40" fill="#C4C4C4"/>
</mask>
<g mask="url(#mask0_1477_4507)">
<g filter="url(#filter0_d_1477_4507)">
<g filter="url(#filter1_i_1477_4507)">
<path d="M24.9519 46.3317C24.5736 44.9626 25.9602 43.462 27.466 43.6108L221.632 62.8039C225.931 63.2289 229.266 65.916 230.346 69.8247L285.068 267.884C285.447 269.253 284.06 270.754 282.554 270.605L86.0666 251.182C83.2006 250.899 80.9771 249.108 80.2571 246.502L24.9519 46.3317Z" fill="#D3BDFF"/>
</g>
<g filter="url(#filter2_d_1477_4507)">
<path d="M41.415 53.6526L217.035 71.0124C219.892 71.2949 222.112 73.0769 222.838 75.6719L272.508 253.132L92.2606 235.315L41.415 53.6526Z" fill="white"/>
<path d="M41.415 53.6526L217.035 71.0124C219.892 71.2949 222.112 73.0769 222.838 75.6719L272.508 253.132L92.2606 235.315L41.415 53.6526Z" fill="url(#paint0_linear_1477_4507)" fill-opacity="0.2"/>
</g>
<path d="M140.394 143.241C143.068 138.15 149.046 128.833 151.557 132.291C154.697 136.613 147.545 139.927 159.739 136.378C171.933 132.829 168.053 136.202 175.551 137.98C183.048 139.758 175.073 137.151 197.426 138.873C215.309 140.251 223.591 136.728 225.497 134.795" stroke="#292B2D" stroke-width="3" stroke-linecap="round"/>
<rect x="1.85017" y="1.31985" width="24.8895" height="24.5475" transform="matrix(1.01329 -0.0264294 0.220152 0.906332 84.822 127.22)" stroke="#91919F" stroke-width="3"/>
<path d="M91.322 136.222C93.748 140.822 99.8691 148.9 104.945 144.414C111.291 138.807 115.392 121.89 127.159 120.566" stroke="#FCAC12" stroke-width="6" stroke-linecap="round" stroke-linejoin="round"/>
<path d="M146.805 172.224C149.592 167.173 154.9 168.701 159.718 168.225C167.289 167.478 162.853 158.99 170.145 160.786C178.496 162.843 174.529 165.751 181.956 167.694C189.382 169.638 181.5 166.853 203.727 169.057C221.509 170.82 229.845 167.462 231.791 165.563" stroke="#292B2D" stroke-width="3" stroke-linecap="round"/>
<rect x="1.87515" y="1.31051" width="24.8895" height="24.5556" transform="matrix(1.01329 -0.0264294 0.23681 0.900101 94.5729 159.998)" stroke="#91919F" stroke-width="3"/>
<path d="M155.727 205.317C158.915 200.484 164.055 202.435 168.877 202.343C176.453 202.198 175.139 203.501 182.226 205.879C190.344 208.602 183.783 201.045 190.992 203.581C198.201 206.118 190.61 202.702 212.486 206.677C229.988 209.857 238.542 207.16 240.631 205.414" stroke="#292B2D" stroke-width="3" stroke-linecap="round"/>
<rect x="1.87515" y="1.31051" width="24.8895" height="24.5556" transform="matrix(1.01329 -0.0264294 0.23681 0.900101 103.491 193.387)" stroke="#91919F" stroke-width="3"/>
<path d="M96.1253 94.9528C96.1126 94.8663 96.1508 94.836 96.2398 94.8617C96.3455 94.8667 96.4331 94.8601 96.5025 94.8419C96.2131 94.6565 95.9785 94.4199 95.7987 94.1323C95.6092 93.8228 95.3648 93.5643 95.0656 93.3569C95.0696 93.2497 95.0604 93.1419 95.038 93.0335C95.042 92.9264 95.1413 92.8882 95.336 92.9189C95.0419 92.4327 94.8549 91.9837 94.7751 91.572C94.6952 91.1604 94.6779 90.7731 94.7232 90.4103C94.795 90.0488 94.898 89.6995 95.0323 89.3624C95.1833 89.0047 95.3211 88.6463 95.4457 88.2872C95.6639 88.2547 95.8189 88.2835 95.9108 88.3737C95.993 88.442 96.0756 88.4245 96.1589 88.3211C96.4741 88.1 96.6475 87.8506 96.6791 87.573C96.7009 87.2735 96.6336 86.9483 96.4774 86.5974C96.4612 86.0385 96.4764 85.4918 96.5228 84.9574C96.5859 84.4022 96.7082 83.8928 96.8896 83.4292C97.071 82.9655 97.3081 82.5689 97.601 82.2393C97.884 81.8878 98.2458 81.626 98.6862 81.4537C98.9388 81.2081 99.2937 80.9888 99.7508 80.7958C100.234 80.6041 100.769 80.4685 101.354 80.389C101.956 80.2888 102.6 80.255 103.287 80.2876C103.964 80.2983 104.622 80.3832 105.262 80.5424C105.413 80.5926 105.483 80.5744 105.47 80.4879C105.448 80.3795 105.49 80.3279 105.595 80.3329C106.975 80.5272 108.248 80.8024 109.415 81.1583C110.608 81.5156 111.697 81.9859 112.68 82.5693C113.475 83.2511 114.268 83.9864 115.059 84.7753C115.84 85.5423 116.535 86.3481 117.144 87.1928C117.769 88.0168 118.264 88.8668 118.628 89.7427C118.992 90.6187 119.158 91.4853 119.126 92.3424C118.632 93.2635 117.856 93.9887 116.798 94.5181C115.731 95.0255 114.52 95.4403 113.164 95.7622C111.824 96.0635 110.389 96.2959 108.858 96.4593C107.354 96.624 105.9 96.8125 104.495 97.0248C104.785 97.6182 105.068 98.2542 105.344 98.9328C105.611 99.5895 105.816 100.254 105.96 100.926C106.121 101.578 106.198 102.215 106.191 102.837C106.21 103.461 106.104 104.035 105.872 104.561C105.334 104.514 104.799 104.531 104.267 104.613C103.761 104.697 103.308 104.782 102.907 104.871C102.647 104.751 102.387 104.631 102.127 104.512C101.903 104.415 101.641 104.349 101.34 104.313C101.302 104.054 101.101 103.776 100.736 103.48C100.398 103.184 100.052 102.9 99.6967 102.625C99.3584 102.33 99.091 102.049 98.8946 101.782C98.7148 101.494 98.761 101.25 99.0332 101.048C98.7535 100.884 98.5404 100.638 98.394 100.309C98.5387 100.402 98.6903 100.452 98.8488 100.46C98.6202 100.062 98.4631 99.5934 98.3774 99.0527C98.3182 98.5132 98.2243 97.9828 98.0956 97.4615C97.9835 96.9195 97.7902 96.4273 97.5157 95.9849C97.2314 95.5206 96.7679 95.1765 96.1253 94.9528ZM103 87.7445C103.002 87.9807 103.007 88.1956 103.016 88.3892C103.041 88.5622 103.048 88.7235 103.037 88.8733C103.026 89.023 103.002 89.1722 102.965 89.3206C102.954 89.4704 102.94 89.6415 102.922 89.8338C103.033 89.9679 103.183 90.0716 103.371 90.1449C103.558 90.2183 103.708 90.322 103.819 90.4561C104.121 90.3201 104.442 90.228 104.782 90.1798C105.113 90.1097 105.454 90.0614 105.804 90.0351C106.154 90.0088 106.5 89.9716 106.84 89.9234C107.181 89.8751 107.515 89.7837 107.843 89.649C108.171 89.5143 108.526 89.4131 108.91 89.3455C109.31 89.2572 109.697 89.1682 110.071 89.0786C110.445 88.9891 110.801 88.8879 111.138 88.7751C111.466 88.6404 111.722 88.4594 111.905 88.2319C111.408 87.9293 110.741 87.6507 109.904 87.3963C109.067 87.1418 108.202 86.972 107.311 86.8867C106.436 86.7807 105.597 86.7838 104.794 86.8959C104.017 87.0093 103.419 87.2921 103 87.7445Z" fill="#292B2D"/>
<path d="M136.349 105.59C135.697 105.752 134.979 105.911 134.196 106.067C133.412 106.223 132.584 106.281 131.712 106.239C130.391 106.176 129.226 105.853 128.216 105.268C127.976 105.021 127.784 104.85 127.639 104.758C127.521 104.666 127.403 104.575 127.285 104.483C127.183 104.371 127.08 104.227 126.975 104.05C126.522 103.728 126.114 103.365 125.754 102.961C125.383 102.536 125.066 102.113 124.801 101.693C124.553 101.251 124.344 100.812 124.175 100.375C124.033 99.9387 123.94 99.5264 123.896 99.1379C123.91 99.0527 123.897 98.9662 123.858 98.8785C123.845 98.792 123.828 98.6946 123.806 98.5862C123.755 98.2403 123.709 97.9054 123.668 97.5815C123.654 97.2588 123.699 96.9819 123.803 96.7507C123.609 96.5483 123.512 96.3289 123.51 96.0927C123.508 95.8565 123.529 95.6428 123.573 95.4517C123.572 94.6359 123.563 93.9486 123.547 93.3897C123.548 92.8101 123.553 92.2415 123.563 91.6838C123.573 90.7183 123.561 89.7624 123.528 88.8163C123.494 87.8701 123.387 86.8454 123.206 85.742C123.369 85.6423 123.493 85.5731 123.579 85.5343C123.718 85.4979 123.835 85.4713 123.931 85.4544C124.495 85.6744 125.137 85.8981 125.859 86.1256C126.571 86.3312 127.139 86.444 127.561 86.4641C127.822 86.5838 127.993 86.6778 128.075 86.7461C128.147 86.7924 128.219 86.8388 128.292 86.8852C128.709 87.1841 129.092 87.4921 129.44 87.8091C129.778 88.1043 130.015 88.4912 130.151 88.9699C130.08 89.1598 130.005 89.2528 129.926 89.249C129.989 89.6814 130.01 90.0473 129.988 90.3468C129.993 90.6476 129.984 90.9477 129.963 91.2472C129.924 91.5674 129.899 91.8882 129.887 92.2096C129.875 92.5311 129.923 92.9305 130.033 93.408C129.976 93.5126 129.941 93.6075 129.927 93.6927C129.939 93.7792 129.944 93.876 129.94 93.9832C129.936 94.0903 129.923 94.2078 129.903 94.3356C129.899 94.4427 129.85 94.537 129.757 94.6185C129.932 95.1849 130.005 95.6392 129.976 95.9813C129.974 96.3247 129.958 96.6674 129.93 97.0095C129.896 97.6305 129.889 98.2526 129.908 98.8761C129.953 99.5008 130.13 100.218 130.438 101.027C130.551 100.989 130.66 100.973 130.766 100.978C130.898 100.984 131.017 100.99 131.122 100.995C131.36 101.006 131.652 101.052 131.998 101.133C132.635 100.82 133.4 100.652 134.296 100.63C135.217 100.61 136.136 100.61 137.05 100.632C137.42 100.65 137.79 100.667 138.16 100.685C138.53 100.703 138.863 100.697 139.161 100.668C139.447 100.789 139.622 100.862 139.685 100.886C139.764 100.89 139.869 100.895 140.002 100.901C140.186 100.91 140.35 100.929 140.492 100.957C140.916 101.213 141.298 101.403 141.637 101.526C141.977 101.65 142.324 101.763 142.681 101.866C143.01 101.967 143.331 102.079 143.644 102.201C143.974 102.303 144.31 102.448 144.652 102.636L145.56 104.063C145.832 104.269 145.97 104.405 145.973 104.469C146.051 104.645 146.057 104.774 145.99 104.857L146.231 105.222C145.864 105.269 145.621 105.333 145.501 105.413C145.408 105.494 145.32 105.587 145.237 105.69C145.035 105.702 144.882 105.706 144.776 105.701C144.697 105.697 144.617 105.693 144.538 105.689C144.168 105.672 143.744 105.705 143.264 105.79C142.463 105.558 141.679 105.425 140.913 105.388C140.623 105.374 140.324 105.371 140.017 105.378C139.709 105.385 139.402 105.392 139.095 105.398C138.798 105.427 138.482 105.444 138.148 105.45C137.841 105.457 137.516 105.452 137.172 105.436L136.349 105.59Z" fill="#292B2D"/>
<path d="M169.038 104.792C169.045 105.158 168.978 105.53 168.837 105.91C168.712 106.269 168.507 106.592 168.221 106.879C167.952 107.145 167.61 107.365 167.196 107.538C166.782 107.712 166.303 107.797 165.758 107.792C165.385 107.71 165.113 107.622 164.942 107.528C164.807 107.457 164.659 107.386 164.498 107.314C164.399 107.266 164.305 107.229 164.216 107.204C164.144 107.157 164.076 107.122 164.013 107.097L163.465 106.91L163.433 106.49C163.408 106.317 163.336 106.185 163.217 106.094C163.089 105.98 162.867 105.83 162.552 105.643C162.443 105.574 162.334 105.504 162.226 105.435C162.117 105.365 162.022 105.296 161.94 105.228L160.988 104.571L161.955 104.391C162.547 104.269 162.895 104.093 162.999 103.861C163.13 103.631 163.041 103.23 162.735 102.657C162.167 102.545 161.713 102.512 161.373 102.56C161.059 102.61 160.736 102.67 160.405 102.74C159.979 102.827 159.534 102.902 159.071 102.966C158.625 103.01 158.111 103.017 157.53 102.99C157.319 102.98 157.121 102.97 156.936 102.962C156.741 102.931 156.533 102.899 156.312 102.867L155.887 102.783C155.726 102.539 155.615 102.405 155.552 102.381C155.48 102.334 155.408 102.288 155.335 102.241C155.154 102.126 154.946 101.976 154.709 101.793C154.489 101.589 154.355 101.347 154.308 101.066C154.088 100.862 153.92 100.661 153.806 100.462C153.765 100.718 153.768 100.986 153.816 101.268L153.804 101.589L153.437 101.636C153.394 101.656 153.378 101.708 153.391 101.795C153.394 101.859 153.405 101.914 153.425 101.958L153.476 102.507C153.442 102.549 153.409 102.59 153.376 102.631C153.333 102.651 153.294 102.681 153.261 102.723C153.296 102.917 153.318 103.112 153.327 103.305C153.335 103.499 153.339 103.682 153.338 103.853C153.333 104.132 153.341 104.412 153.362 104.692C153.4 104.951 153.491 105.213 153.634 105.477L153.637 105.832C153.564 105.957 153.467 106.06 153.348 106.14C153.219 106.198 153.089 106.256 152.96 106.315C152.927 106.356 152.867 106.396 152.781 106.435C152.711 106.453 152.655 106.472 152.612 106.491L152.654 106.848L152.208 106.891C151.937 106.921 151.74 106.944 151.618 106.959C151.522 106.976 151.395 106.981 151.237 106.973L150.826 106.922C150.447 106.711 150.154 106.546 149.947 106.429C149.73 106.29 149.491 106.161 149.231 106.041C148.876 105.766 148.656 105.563 148.571 105.43C148.486 105.297 148.406 105.175 148.331 105.064C148.219 104.93 148.144 104.819 148.105 104.732C148.04 104.643 147.971 104.575 147.898 104.529L147.208 104.109L147.512 103.834L147.302 103.277C147.332 102.183 147.409 101.135 147.531 100.132C147.68 99.13 147.832 98.1068 147.987 97.0623C148.042 96.7215 148.084 96.38 148.113 96.0379C148.168 95.697 148.223 95.3562 148.278 95.0153C148.222 94.9483 148.175 94.8709 148.136 94.7832C148.097 94.6954 148.079 94.598 148.083 94.4909C148.208 94.1318 148.299 93.8142 148.357 93.5379C148.405 93.2396 148.453 92.9414 148.502 92.6431C148.547 92.2803 148.597 91.9285 148.652 91.5876C148.734 91.248 148.863 90.9 149.041 90.5435L149.572 90.3433C149.641 90.3252 149.724 90.3076 149.82 90.2907C149.906 90.2519 150.015 90.2356 150.147 90.2419L150.771 90.3359C151.384 90.0859 151.855 89.7219 152.185 89.2439C152.506 88.7439 152.795 88.1458 153.054 87.4497L153.245 87.008L153.878 87.2956C154.039 87.3677 154.253 87.4423 154.52 87.5194C154.778 87.5745 155.053 87.6413 155.346 87.7196C155.861 87.8299 156.354 87.9499 156.825 88.0797C157.297 88.2094 157.714 88.3902 158.075 88.6221C158.39 88.9805 158.6 89.248 158.704 89.4247C158.809 89.6014 158.927 89.7788 159.058 89.9567C159.303 90.3333 159.535 90.7093 159.754 91.0846C159.999 91.4612 160.237 91.8804 160.469 92.3422C160.767 92.7213 161.039 93.0991 161.284 93.4757C161.546 93.8316 161.799 94.1979 162.044 94.5745C162.411 95.1071 162.772 95.6288 163.129 96.1394C163.476 96.6282 163.853 97.0969 164.259 97.5456C164.471 97.5556 164.608 97.5728 164.67 97.5973C164.783 97.5597 164.9 97.5331 165.023 97.5174C165.171 97.503 165.333 97.4892 165.508 97.4761L165.93 97.4639L166.235 97.8004C166.31 97.9113 166.491 98.0272 166.777 98.1482C167.131 98.1864 167.411 98.2641 167.618 98.3813C167.816 98.4766 168.005 98.5822 168.186 98.6981C168.331 98.7908 168.465 98.8616 168.591 98.9105L169.273 99.1361L169.176 99.6145C169.087 99.9967 168.875 100.362 168.539 100.711C168.22 101.04 167.81 101.31 167.31 101.522C167.395 101.655 167.467 101.787 167.526 101.919C167.601 102.03 167.694 102.152 167.806 102.286C168.051 102.663 168.288 103.05 168.516 103.447C168.745 103.845 168.926 104.25 169.058 104.664L169.038 104.792ZM155.052 98.5572C155.825 98.551 156.519 98.541 157.133 98.5272C157.764 98.4928 158.447 98.4286 159.181 98.3347C158.703 97.668 158.202 96.9787 157.678 96.2669C157.145 95.5331 156.603 94.8097 156.053 94.0966L155.961 94.4143C155.638 94.8498 155.353 95.3407 155.105 95.887C154.883 96.4346 154.713 96.9525 154.594 97.4406C154.523 97.6304 154.453 97.8203 154.382 98.0101C154.311 98.2 154.254 98.3905 154.21 98.5816C154.359 98.5672 154.499 98.5631 154.631 98.5694C154.79 98.5769 154.93 98.5728 155.052 98.5572Z" fill="#292B2D"/>
<path d="M179.963 102.156C179.745 102.188 179.627 102.301 179.609 102.493C179.582 102.663 179.559 102.845 179.541 103.037C179.55 103.231 179.54 103.413 179.513 103.583C179.502 103.733 179.404 103.803 179.219 103.795C179.271 103.969 179.26 104.119 179.186 104.244C179.139 104.371 179.097 104.508 179.06 104.657C179.013 104.783 179.002 104.933 179.027 105.106C179.043 105.257 179.152 105.444 179.355 105.669C179.203 105.79 179.154 105.97 179.208 106.209C179.263 106.448 179.299 106.675 179.318 106.891C179.363 107.107 179.34 107.289 179.25 107.435C179.16 107.581 178.898 107.633 178.466 107.591C178.426 107.675 178.437 107.729 178.5 107.753C178.562 107.778 178.636 107.856 178.721 107.989C178.411 107.932 178.191 107.932 178.062 107.99C177.969 108.072 177.822 108.118 177.62 108.13C177.06 107.975 176.534 107.724 176.045 107.379C175.581 107.035 175.129 106.659 174.689 106.252C174.266 105.824 173.856 105.397 173.459 104.97C173.089 104.545 172.743 104.174 172.421 103.858C172.393 103.621 172.304 103.391 172.153 103.169C171.993 102.925 171.813 102.724 171.612 102.564C171.891 100.345 172.22 97.9774 172.6 95.4623C172.98 92.9473 173.295 90.4614 173.546 88.0046C174.241 88.2308 174.938 88.4893 175.637 88.7801C176.351 89.0502 177.02 89.361 177.642 89.7126C178.29 90.0654 178.884 90.4692 179.423 90.9242C179.951 91.3572 180.386 91.8394 180.726 92.3707C180.732 92.4998 180.69 92.5515 180.601 92.5258C180.529 92.4794 180.481 92.4879 180.457 92.5512C180.612 92.6658 180.699 92.7451 180.718 92.789C180.764 92.8341 180.784 92.8779 180.777 92.9205C180.796 92.9644 180.826 93.0302 180.865 93.1179C180.894 93.1837 180.978 93.2843 181.115 93.4196C181 93.3927 180.926 93.3999 180.892 93.4412C180.886 93.4838 180.806 93.4801 180.655 93.4299C180.868 93.6762 180.982 93.8748 180.998 94.0258C181.039 94.1781 181.05 94.3181 181.029 94.446C180.999 94.5519 180.992 94.6803 181.007 94.8313C181.013 94.9604 181.104 95.1365 181.281 95.3595C181.202 95.3558 181.146 95.3746 181.112 95.4159C181.096 95.4366 181.084 95.4682 181.077 95.5108C181.06 95.5315 181.035 95.5625 181.002 95.6039C180.985 95.6246 180.933 95.622 180.844 95.5964C181.138 96.0826 181.379 96.5663 181.567 97.0476C181.756 97.5288 181.949 98.021 182.147 98.5241C182.362 99.0066 182.605 99.5226 182.875 100.072C183.136 100.6 183.473 101.152 183.885 101.73C184.631 101.315 185.12 100.758 185.353 100.061C185.611 99.3649 185.712 98.5754 185.656 97.6926C185.625 96.811 185.473 95.8592 185.199 94.8372C184.925 93.8153 184.654 92.772 184.387 91.7074C184.537 91.5213 184.614 91.2889 184.619 91.01C184.624 90.7312 184.611 90.4408 184.58 90.1388C184.54 89.8148 184.504 89.5019 184.473 89.1999C184.432 88.8759 184.432 88.5861 184.473 88.3305C184.889 88.3932 185.268 88.5185 185.61 88.7065C185.969 88.8738 186.312 89.0618 186.637 89.2705C186.953 89.4572 187.282 89.6446 187.624 89.8326C187.957 89.9987 188.331 90.113 188.747 90.1757C189.23 90.5636 189.682 90.9393 190.102 91.3027C190.522 91.6662 190.86 92.0471 191.115 92.4457C191.061 92.6148 191.043 92.8072 191.062 93.0227C191.107 93.2395 191.138 93.4557 191.157 93.6712C191.175 93.8868 191.162 94.0901 191.118 94.2812C191.064 94.4504 190.947 94.5951 190.768 94.7154C190.943 95.2818 191.072 95.8032 191.154 96.2794C191.254 96.7349 191.34 97.1898 191.413 97.6441C191.512 98.0996 191.635 98.5777 191.78 99.0783C191.916 99.5571 192.129 100.093 192.419 100.686C192.432 101.181 192.447 101.708 192.463 102.266C192.479 102.825 192.523 103.332 192.596 103.786C192.301 104.051 192.122 104.375 192.06 104.759C191.998 105.142 191.923 105.525 191.834 105.907C191.768 105.99 191.711 106.009 191.666 105.964C191.62 105.919 191.512 105.881 191.344 105.852C191.41 105.941 191.439 106.007 191.432 106.049C191.425 106.092 191.405 106.134 191.372 106.175C191.355 106.196 191.348 106.239 191.351 106.303C191.38 106.369 191.446 106.458 191.548 106.57C191.236 106.684 190.989 106.855 190.806 107.082C190.623 107.31 190.404 107.514 190.148 107.695C189.919 107.877 189.581 107.99 189.135 108.033C188.715 108.078 188.087 107.973 187.249 107.718C185.873 107.009 184.572 106.206 183.346 105.311C182.147 104.417 181.019 103.365 179.963 102.156Z" fill="#292B2D"/>
<g filter="url(#filter3_i_1477_4507)">
<path d="M82.1515 43.9007C80.3119 38.3946 85.922 32.0771 92.1081 32.6886L155.516 38.9564C166.459 40.0381 175.099 46.6241 178.353 56.3641L181.378 65.419C183.218 70.9251 177.608 77.2426 171.422 76.6312L108.014 70.3634C97.0713 69.2817 88.431 62.6957 85.1768 52.9557L82.1515 43.9007Z" fill="#8F57FF"/>
</g>
</g>
</g>
<defs>
<filter id="filter0_d_1477_4507" x="-23.1113" y="16.6475" width="356.243" height="333.968" filterUnits="userSpaceOnUse" color-interpolation-filters="sRGB">
<feFlood flood-opacity="0" result="BackgroundImageFix"/>
<feColorMatrix in="SourceAlpha" type="matrix" values="0 0 0 0 0 0 0 0 0 0 0 0 0 0 0 0 0 0 127 0" result="hardAlpha"/>
<feOffset dy="32"/>
<feGaussianBlur stdDeviation="24"/>
<feColorMatrix type="matrix" values="0 0 0 0 0 0 0 0 0 0 0 0 0 0 0 0 0 0 0.08 0"/>
<feBlend mode="normal" in2="BackgroundImageFix" result="effect1_dropShadow_1477_4507"/>
<feBlend mode="normal" in="SourceGraphic" in2="effect1_dropShadow_1477_4507" result="shape"/>
</filter>
<filter id="filter1_i_1477_4507" x="24.8887" y="43.6006" width="263.243" height="227.015" filterUnits="userSpaceOnUse" color-interpolation-filters="sRGB">
<feFlood flood-opacity="0" result="BackgroundImageFix"/>
<feBlend mode="normal" in="SourceGraphic" in2="BackgroundImageFix" result="shape"/>
<feColorMatrix in="SourceAlpha" type="matrix" values="0 0 0 0 0 0 0 0 0 0 0 0 0 0 0 0 0 0 127 0" result="hardAlpha"/>
<feOffset dx="3"/>
<feGaussianBlur stdDeviation="4"/>
<feComposite in2="hardAlpha" operator="arithmetic" k2="-1" k3="1"/>
<feColorMatrix type="matrix" values="0 0 0 0 0.831373 0 0 0 0 0.443137 0 0 0 0 0.168627 0 0 0 0.24 0"/>
<feBlend mode="normal" in2="shape" result="effect1_innerShadow_1477_4507"/>
</filter>
<filter id="filter2_d_1477_4507" x="40.415" y="53.6526" width="232.093" height="205.479" filterUnits="userSpaceOnUse" color-interpolation-filters="sRGB">
<feFlood flood-opacity="0" result="BackgroundImageFix"/>
<feColorMatrix in="SourceAlpha" type="matrix" values="0 0 0 0 0 0 0 0 0 0 0 0 0 0 0 0 0 0 127 0" result="hardAlpha"/>
<feOffset dx="-1" dy="6"/>
<feColorMatrix type="matrix" values="0 0 0 0 0.9125 0 0 0 0 0.9125 0 0 0 0 0.9125 0 0 0 1 0"/>
<feBlend mode="normal" in2="BackgroundImageFix" result="effect1_dropShadow_1477_4507"/>
<feBlend mode="normal" in="SourceGraphic" in2="effect1_dropShadow_1477_4507" result="shape"/>
</filter>
<filter id="filter3_i_1477_4507" x="81.7969" y="24.6475" width="106.937" height="52.0249" filterUnits="userSpaceOnUse" color-interpolation-filters="sRGB">
<feFlood flood-opacity="0" result="BackgroundImageFix"/>
<feBlend mode="normal" in="SourceGraphic" in2="BackgroundImageFix" result="shape"/>
<feColorMatrix in="SourceAlpha" type="matrix" values="0 0 0 0 0 0 0 0 0 0 0 0 0 0 0 0 0 0 127 0" result="hardAlpha"/>
<feOffset dx="7" dy="-9"/>
<feGaussianBlur stdDeviation="4"/>
<feComposite in2="hardAlpha" operator="arithmetic" k2="-1" k3="1"/>
<feColorMatrix type="matrix" values="0 0 0 0 0.466447 0 0 0 0 0.260087 0 0 0 0 0.879167 0 0 0 1 0"/>
<feBlend mode="overlay" in2="shape" result="effect1_innerShadow_1477_4507"/>
</filter>
<linearGradient id="paint0_linear_1477_4507" x1="127.891" y1="24.2613" x2="207.801" y2="252.366" gradientUnits="userSpaceOnUse">
<stop stop-opacity="0.04"/>
<stop offset="1" stop-opacity="0"/>
</linearGradient>
</defs>
</svg>
