<svg width="24" height="17" viewBox="0 0 24 17" fill="none" xmlns="http://www.w3.org/2000/svg">
<path d="M1.37228 7.57079L2.23545 6.7156L7.64526 1.35579C7.64529 1.35576 7.64532 1.35574 7.64534 1.35571C7.69217 1.30925 7.72934 1.25397 7.7547 1.19308C7.78009 1.13215 7.79316 1.0668 7.79316 1.00079C7.79316 0.934788 7.78009 0.869435 7.7547 0.808504C7.72932 0.747575 7.69212 0.692274 7.64526 0.645793L7.64486 0.645397C7.55118 0.552271 7.42445 0.5 7.29236 0.5C7.16027 0.5 7.03354 0.552271 6.93986 0.645397L6.93936 0.645898L1.23113 6.30413C1.23085 6.30441 1.23057 6.30469 1.23029 6.30498C0.762648 6.77365 0.5 7.40869 0.5 8.07079C0.5 8.73319 0.762883 9.36851 1.23091 9.83724L1.37228 7.57079ZM1.37228 7.57079H2.58736H22.9974C23.13 7.57079 23.2571 7.62347 23.3509 7.71724C23.4447 7.81101 23.4974 7.93818 23.4974 8.07079C23.4974 8.2034 23.4447 8.33058 23.3509 8.42435C23.2571 8.51811 23.13 8.57079 22.9974 8.57079H2.58736H1.38025L2.23381 9.42435L7.5938 14.7844L7.59526 14.7858C7.64212 14.8323 7.67932 14.8876 7.7047 14.9485C7.73009 15.0094 7.74316 15.0748 7.74316 15.1408C7.74316 15.2068 7.73009 15.2722 7.7047 15.3331C7.67932 15.394 7.64212 15.4493 7.59526 15.4958L7.59525 15.4958C7.54853 15.5421 7.49312 15.5788 7.4322 15.6037C7.37129 15.6286 7.30606 15.6412 7.24025 15.6408L7.23947 15.6408C7.10859 15.6402 6.98316 15.5884 6.89009 15.4964C6.88988 15.4962 6.88967 15.496 6.88947 15.4958L1.23113 9.83746L1.37228 7.57079Z" fill="#7F3DFF" stroke="white"/>
</svg>
