<svg width="19" height="9" viewBox="0 0 19 9" fill="none" xmlns="http://www.w3.org/2000/svg">
<path d="M9.4364 8.27049L9.43046 8.77046L9.42451 8.27049C8.23833 8.28459 7.09462 7.82974 6.24214 7.005L0.6107 1.31376C0.535007 1.21985 0.495705 1.10157 0.500373 0.980702C0.505234 0.854865 0.5574 0.735495 0.646447 0.646448C0.735495 0.5574 0.854865 0.505234 0.980702 0.500373C1.1012 0.495719 1.21913 0.534769 1.31291 0.610014L6.9569 6.25401L6.95678 6.25413L6.9663 6.26317C7.63148 6.89432 8.51349 7.24618 9.43046 7.24618C10.3474 7.24618 11.2294 6.89432 11.8946 6.26317L11.8947 6.26329L11.904 6.25401L17.548 0.61001C17.6418 0.534768 17.7597 0.495719 17.8802 0.500373C18.0061 0.505234 18.1254 0.5574 18.2145 0.646448C18.3035 0.735494 18.3557 0.854863 18.3605 0.980702C18.3652 1.10157 18.3259 1.21985 18.2502 1.31377L12.6188 7.00499C11.7663 7.82973 10.6226 8.28459 9.4364 8.27049Z" fill="black" stroke="#91919F"/>
</svg>
