<svg width="24" height="18" viewBox="0 0 24 18" fill="none" xmlns="http://www.w3.org/2000/svg">
<path d="M1.37473 8.49999L2.23789 7.6448L7.6477 2.28499C7.64773 2.28496 7.64776 2.28494 7.64779 2.28491C7.69461 2.23845 7.73178 2.18317 7.75715 2.12228C7.78253 2.06135 7.7956 1.996 7.7956 1.92999C7.7956 1.86399 7.78253 1.79863 7.75715 1.7377C7.73176 1.67677 7.69456 1.62147 7.6477 1.57499L7.6473 1.5746C7.55362 1.48147 7.42689 1.4292 7.2948 1.4292C7.16271 1.4292 7.03598 1.48147 6.9423 1.5746L6.9418 1.5751L1.23358 7.23333C1.23329 7.23361 1.23301 7.23389 1.23273 7.23418C0.765089 7.70284 0.502441 8.33789 0.502441 8.99999C0.502441 9.66239 0.765325 10.2977 1.23336 10.7664L1.37473 8.49999ZM1.37473 8.49999H2.5898H22.9998C23.1324 8.49999 23.2596 8.55267 23.3534 8.64644C23.4471 8.74021 23.4998 8.86738 23.4998 8.99999C23.4998 9.1326 23.4471 9.25978 23.3534 9.35355C23.2596 9.44731 23.1324 9.49999 22.9998 9.49999H2.5898H1.3827L2.23625 10.3535L7.59625 15.7135L7.5977 15.715C7.64457 15.7615 7.68176 15.8168 7.70715 15.8777C7.73253 15.9386 7.7456 16.004 7.7456 16.07C7.7456 16.136 7.73253 16.2014 7.70715 16.2623C7.68176 16.3232 7.64456 16.3785 7.5977 16.425L7.59769 16.425C7.55097 16.4713 7.49557 16.508 7.43465 16.5329C7.37373 16.5578 7.3085 16.5704 7.24269 16.57L7.24191 16.57C7.11103 16.5694 6.9856 16.5176 6.89253 16.4256C6.89232 16.4254 6.89212 16.4252 6.89191 16.425L1.23358 10.7667L1.37473 8.49999Z" fill="#7F3DFF" stroke="#212325"/>
</svg>
