<svg width="7" height="15" viewBox="0 0 7 15" fill="none" xmlns="http://www.w3.org/2000/svg">
<path d="M0.750594 14.1903C0.651364 14.1899 0.553201 14.1698 0.461795 14.1312C0.370388 14.0926 0.287555 14.0362 0.218094 13.9653C0.0784061 13.8248 0 13.6347 0 13.4366C0 13.2385 0.0784061 13.0484 0.218094 12.9078L4.46309 8.66284C4.88445 8.24097 5.12111 7.66909 5.12111 7.07284C5.12111 6.47659 4.88445 5.90472 4.46309 5.48284L0.218094 1.23784C0.0952246 1.09437 0.0310197 0.90981 0.0383105 0.721053C0.0456014 0.532296 0.123851 0.353241 0.257422 0.21967C0.390993 0.0860995 0.570047 0.0078502 0.758804 0.000559336C0.947561 -0.00673153 1.13212 0.057473 1.27559 0.180343L5.55809 4.41784C5.90732 4.76619 6.18439 5.18 6.37344 5.63559C6.56249 6.09118 6.6598 6.57959 6.6598 7.07284C6.6598 7.5661 6.56249 8.05451 6.37344 8.51009C6.18439 8.96568 5.90732 9.3795 5.55809 9.72784L1.31309 13.9653C1.24014 14.0399 1.15243 14.0984 1.05557 14.1372C0.958718 14.1759 0.854846 14.194 0.750594 14.1903V14.1903Z" fill="#7F3DFF"/>
</svg>
