<svg width="35" height="30" viewBox="0 0 35 30" fill="none" xmlns="http://www.w3.org/2000/svg">
<path d="M31.2501 12.5001H29.3626C29.0852 12.5119 28.8119 12.4311 28.5855 12.2704C28.3592 12.1097 28.1928 11.8783 28.1126 11.6126L26.0126 4.45006C25.6243 3.1591 24.8291 2.02827 23.7455 1.22629C22.662 0.424309 21.3481 -0.00582704 20.0001 5.96259e-05H9.63757C8.3894 0.000350125 7.16991 0.374357 6.13619 1.0739C5.10247 1.77344 4.30189 2.76647 3.83757 3.92506L0.27507 12.8376C0.0905945 13.2811 -0.00292123 13.7572 6.95339e-05 14.2376V20.0001C0.000114186 21.4647 0.514516 22.8828 1.45348 24.0068C2.39245 25.1308 3.69635 25.8894 5.13757 26.1501C5.39718 27.2342 6.01163 28.2004 6.8833 28.8953C7.75496 29.5902 8.83385 29.9739 9.94855 29.9854C11.0632 29.9969 12.1498 29.6355 13.0356 28.9587C13.9214 28.282 14.5557 27.3286 14.8376 26.2501H20.1626C20.4422 27.3201 21.0687 28.2671 21.9441 28.9431C22.8194 29.619 23.8941 29.9857 25.0001 29.9857C26.106 29.9857 27.1807 29.619 28.0561 28.9431C28.9314 28.2671 29.5579 27.3201 29.8376 26.2501H31.2501C32.2446 26.2501 33.1985 25.855 33.9017 25.1517C34.605 24.4484 35.0001 23.4946 35.0001 22.5001V16.2501C35.0001 15.2555 34.605 14.3017 33.9017 13.5984C33.1985 12.8951 32.2446 12.5001 31.2501 12.5001ZM10.0001 27.5001C9.50562 27.5001 9.02227 27.3534 8.61114 27.0787C8.20002 26.804 7.87959 26.4136 7.69037 25.9568C7.50115 25.5 7.45164 24.9973 7.54811 24.5123C7.64457 24.0274 7.88267 23.5819 8.2323 23.2323C8.58193 22.8827 9.02739 22.6446 9.51234 22.5481C9.9973 22.4516 10.5 22.5011 10.9568 22.6904C11.4136 22.8796 11.804 23.2 12.0787 23.6111C12.3534 24.0223 12.5001 24.5056 12.5001 25.0001C12.5001 25.6631 12.2367 26.299 11.7678 26.7678C11.299 27.2367 10.6631 27.5001 10.0001 27.5001ZM16.2501 12.5001H3.08757L6.15007 4.86256C6.42796 4.16481 6.90895 3.56659 7.53076 3.14536C8.15256 2.72414 8.88652 2.49933 9.63757 2.50006H16.2501V12.5001ZM18.7501 12.5001V2.50006H20.0001C20.8125 2.49305 21.6053 2.7501 22.259 3.23253C22.9128 3.71496 23.3922 4.39666 23.6251 5.17506L25.7626 12.3251C25.7822 12.3855 25.8073 12.4441 25.8376 12.5001H18.7501ZM25.0001 27.5001C24.5056 27.5001 24.0223 27.3534 23.6111 27.0787C23.2 26.804 22.8796 26.4136 22.6904 25.9568C22.5012 25.5 22.4516 24.9973 22.5481 24.5123C22.6446 24.0274 22.8827 23.5819 23.2323 23.2323C23.5819 22.8827 24.0274 22.6446 24.5123 22.5481C24.9973 22.4516 25.5 22.5011 25.9568 22.6904C26.4136 22.8796 26.804 23.2 27.0787 23.6111C27.3534 24.0223 27.5001 24.5056 27.5001 25.0001C27.5001 25.6631 27.2367 26.299 26.7678 26.7678C26.299 27.2367 25.6631 27.5001 25.0001 27.5001ZM32.5001 20.0001H31.2501C30.9185 20.0001 30.6006 19.8684 30.3662 19.6339C30.1318 19.3995 30.0001 19.0816 30.0001 18.7501C30.0001 18.4185 30.1318 18.1006 30.3662 17.8662C30.6006 17.6318 30.9185 17.5001 31.2501 17.5001H32.5001V20.0001Z" fill="#0077FF"/>
</svg>
