<svg width="24" height="28" viewBox="0 0 24 28" fill="none" xmlns="http://www.w3.org/2000/svg">
<path d="M19 12H5C3.67392 12 2.40215 12.5268 1.46447 13.4645C0.526784 14.4021 0 15.6739 0 17V23C0 24.3261 0.526784 25.5979 1.46447 26.5355C2.40215 27.4732 3.67392 28 5 28H19C20.3261 28 21.5979 27.4732 22.5355 26.5355C23.4732 25.5979 24 24.3261 24 23V17C24 15.6739 23.4732 14.4021 22.5355 13.4645C21.5979 12.5268 20.3261 12 19 12V12ZM12 24C11.2089 24 10.4355 23.7654 9.77772 23.3259C9.11992 22.8864 8.60723 22.2616 8.30448 21.5307C8.00173 20.7998 7.92252 19.9956 8.07686 19.2196C8.2312 18.4437 8.61216 17.731 9.17157 17.1716C9.73098 16.6122 10.4437 16.2312 11.2196 16.0769C11.9956 15.9225 12.7998 16.0017 13.5307 16.3045C14.2616 16.6072 14.8864 17.1199 15.3259 17.7777C15.7654 18.4355 16 19.2089 16 20C16 21.0609 15.5786 22.0783 14.8284 22.8284C14.0783 23.5786 13.0609 24 12 24Z" fill="#FD3C4A"/>
<path d="M12 22C13.1046 22 14 21.1046 14 20C14 18.8954 13.1046 18 12 18C10.8954 18 10 18.8954 10 20C10 21.1046 10.8954 22 12 22Z" fill="#FD3C4A"/>
<path d="M12.7101 0.289939C12.6171 0.19621 12.5065 0.121816 12.3847 0.0710475C12.2628 0.0202789 12.1321 -0.00585938 12.0001 -0.00585938C11.8681 -0.00585938 11.7374 0.0202789 11.6155 0.0710475C11.4937 0.121816 11.383 0.19621 11.2901 0.289939L7.05009 4.53994C6.85648 4.72692 6.74508 4.98315 6.74039 5.25226C6.7357 5.52138 6.83811 5.78133 7.02509 5.97494C7.21206 6.16855 7.46829 6.27995 7.73741 6.28464C8.00652 6.28933 8.26648 6.18692 8.46009 5.99994L11.0001 3.40994V8.99994C11.0001 9.26516 11.1054 9.51951 11.293 9.70705C11.4805 9.89458 11.7349 9.99994 12.0001 9.99994C12.2653 9.99994 12.5197 9.89458 12.7072 9.70705C12.8947 9.51951 13.0001 9.26516 13.0001 8.99994V3.40994L15.5401 5.99994C15.7263 6.18468 15.9777 6.28883 16.2401 6.28994C16.38 6.29755 16.52 6.27567 16.6509 6.22571C16.7818 6.17575 16.9008 6.09883 17.0001 5.99994C17.1863 5.81258 17.2909 5.55912 17.2909 5.29494C17.2909 5.03075 17.1863 4.7773 17.0001 4.58994L12.7101 0.289939Z" fill="#FD3C4A"/>
</svg>
