<svg width="24" height="24" viewBox="0 0 24 24" fill="none" xmlns="http://www.w3.org/2000/svg">
<path d="M23.6078 9.54393L21.6078 7.72393L13.9378 0.763932C13.3877 0.271977 12.6757 0 11.9378 0C11.1998 0 10.4878 0.271977 9.93776 0.763932L2.28776 7.76393L0.287763 9.58393C0.153088 9.72058 0.0605672 9.89309 0.0212369 10.0809C-0.0180933 10.2687 -0.00257219 10.4638 0.0659485 10.643C0.134469 10.8222 0.253097 10.9779 0.40768 11.0916C0.562262 11.2052 0.746274 11.272 0.937763 11.2839C1.19105 11.2725 1.43054 11.1653 1.60776 10.9839L1.93776 10.6839V20.9839C1.93776 21.7796 2.25383 22.5426 2.81644 23.1053C3.37905 23.6679 4.14211 23.9839 4.93776 23.9839H18.9378C19.7334 23.9839 20.4965 23.6679 21.0591 23.1053C21.6217 22.5426 21.9378 21.7796 21.9378 20.9839V10.7239L22.2678 11.0239C22.4512 11.1906 22.6899 11.2833 22.9378 11.2839C23.1394 11.2834 23.3361 11.2219 23.5022 11.1076C23.6683 10.9933 23.7959 10.8314 23.8684 10.6433C23.9408 10.4551 23.9547 10.2495 23.9082 10.0533C23.8617 9.85709 23.757 9.67954 23.6078 9.54393Z" fill="#C6C6C6"/>
</svg>
