<svg width="20" height="25" viewBox="0 0 20 25" fill="none" xmlns="http://www.w3.org/2000/svg">
<path d="M19.0434 17.915C18.9111 18.6321 18.5417 19.2767 18.0007 19.7343C17.4597 20.192 16.7822 20.4332 16.0883 20.415H2.99457C2.30069 20.4332 1.62314 20.192 1.08217 19.7343C0.54119 19.2767 0.171767 18.6321 0.039451 17.915C-0.0587888 17.3 0.0275196 16.6681 0.286372 16.1072C0.545225 15.5462 0.963754 15.0841 1.48375 14.785C1.62423 14.7033 1.74091 14.5829 1.82127 14.4367C1.90162 14.2904 1.94262 14.1239 1.93985 13.955V10.415C1.93723 8.81912 2.38823 7.25885 3.23486 5.93482C4.0815 4.61079 5.28506 3.5835 6.69084 2.98504C6.69462 2.18939 6.99858 1.42791 7.53584 0.868111C8.0731 0.308314 8.79967 -0.0039407 9.55569 3.75522e-05C10.3117 0.0040158 11.0353 0.323901 11.5672 0.889324C12.0991 1.45475 12.3958 2.21939 12.392 3.01504C13.81 3.67 15.0151 4.74682 15.8592 6.11307C16.7032 7.47932 17.1495 9.0754 17.143 10.705V13.955C17.1364 14.12 17.1717 14.2838 17.2452 14.4297C17.3186 14.5755 17.4277 14.6982 17.5611 14.785C18.0881 15.0782 18.5146 15.5378 18.7805 16.0992C19.0464 16.6607 19.1383 17.2957 19.0434 17.915V17.915Z" fill="#7F3DFF"/>
<path d="M9.54163 24.415C10.2049 24.4108 10.8556 24.224 11.429 23.8731C12.0025 23.5223 12.4787 23.0196 12.8103 22.415H6.27295C6.60459 23.0196 7.08079 23.5223 7.65422 23.8731C8.22765 24.224 8.87834 24.4108 9.54163 24.415Z" fill="#7F3DFF"/>
</svg>
