<svg width="87" height="20" viewBox="0 0 87 20" fill="none" xmlns="http://www.w3.org/2000/svg">
<path d="M3.042 13.608C3.042 14.316 2.352 14.67 0.972 14.67C0.672 14.67 0.492 14.52 0.432 14.22C0.384 13.908 0.36 13.476 0.36 12.924C0.36 11.76 0.594 10.32 1.062 8.604C1.842 5.772 2.676 4.104 3.564 3.6C3.684 3.528 3.816 3.492 3.96 3.492C4.104 3.492 4.176 3.726 4.176 4.194C4.176 4.662 4.152 5.076 4.104 5.436C4.008 6.156 3.834 7.086 3.582 8.226C3.342 9.366 3.222 10.038 3.222 10.242L3.042 13.608ZM4.266 8.766C4.266 8.61 4.35 8.508 4.518 8.46C4.698 8.412 4.92 8.37 5.184 8.334C5.448 8.286 5.736 8.22 6.048 8.136C6.36 8.052 6.648 7.896 6.912 7.668C7.524 7.14 7.83 6.258 7.83 5.022C7.83 4.23 7.56 3.624 7.02 3.204C6.492 2.784 5.724 2.574 4.716 2.574C3.72 2.574 2.784 2.784 1.908 3.204C1.584 3.36 1.29 3.504 1.026 3.636C0.774 3.768 0.54 3.834 0.324 3.834C0.108 3.834 0 3.768 0 3.636C0 3.432 0.198 3.096 0.594 2.628C0.99 2.196 1.614 1.794 2.466 1.422C3.33 1.05 4.236 0.864 5.184 0.864C6.972 0.852 8.364 1.272 9.36 2.124C10.224 2.868 10.656 3.834 10.656 5.022C10.656 6.198 10.23 7.254 9.378 8.19C8.526 9.114 7.458 9.576 6.174 9.576C4.902 9.576 4.266 9.306 4.266 8.766Z" fill="white"/>
<path d="M14.6755 12.438C15.6115 12.438 16.5175 12.066 17.3935 11.322C17.7175 11.046 17.9815 10.794 18.1855 10.566C18.3895 10.326 18.5455 10.206 18.6535 10.206C18.8215 10.206 18.9055 10.374 18.9055 10.71C18.9055 11.046 18.8155 11.424 18.6355 11.844C18.4555 12.252 18.1555 12.654 17.7355 13.05C16.7035 14.022 15.2875 14.508 13.4875 14.508C12.0595 14.508 11.0875 13.992 10.5715 12.96C10.3915 12.6 10.3015 12.084 10.3015 11.412C10.3015 10.74 10.4335 10.044 10.6975 9.324C10.9615 8.592 11.3095 7.962 11.7415 7.434C12.1855 6.906 12.6955 6.498 13.2715 6.21C13.8475 5.91 14.4595 5.76 15.1075 5.76C15.7675 5.76 16.2715 5.922 16.6195 6.246C16.9795 6.57 17.1595 6.99 17.1595 7.506C17.1595 8.022 17.0275 8.448 16.7635 8.784C16.5115 9.108 16.1815 9.384 15.7735 9.612C15.3655 9.828 14.9095 10.026 14.4055 10.206C13.9135 10.374 13.4275 10.566 12.9475 10.782V11.232C12.9595 11.664 13.1395 11.97 13.4875 12.15C13.8355 12.33 14.2315 12.426 14.6755 12.438ZM14.3695 7.362C13.7455 7.362 13.3135 8.088 13.0735 9.54C13.3255 9.372 13.5595 9.222 13.7755 9.09C14.0035 8.958 14.2015 8.832 14.3695 8.712C14.7295 8.448 14.9155 8.148 14.9275 7.812C14.9275 7.512 14.7415 7.362 14.3695 7.362Z" fill="white"/>
<path d="M20.3989 5.418C20.8309 5.418 21.2389 5.832 21.6229 6.66C22.1869 6.072 22.8829 5.778 23.7109 5.778C24.5509 5.778 25.1809 5.964 25.6009 6.336C26.0209 6.696 26.2309 7.212 26.2309 7.884C26.2309 8.544 26.1409 9.216 25.9609 9.9C25.7929 10.584 25.6669 11.076 25.5829 11.376C25.5109 11.664 25.4749 11.904 25.4749 12.096C25.4749 12.288 25.5409 12.384 25.6729 12.384C25.8529 12.384 26.0749 12.27 26.3389 12.042C26.6029 11.814 26.8669 11.568 27.1309 11.304C27.3949 11.028 27.6349 10.776 27.8509 10.548C28.0789 10.32 28.2349 10.206 28.3189 10.206C28.4869 10.206 28.5709 10.41 28.5709 10.818C28.5709 11.658 28.1569 12.468 27.3289 13.248C25.9369 14.064 25.0489 14.472 24.6649 14.472C24.6289 14.472 24.6049 14.466 24.5929 14.454C23.6329 14.454 23.1529 13.686 23.1529 12.15C23.1529 11.49 23.2129 10.884 23.3329 10.332C23.4649 9.78 23.5609 9.378 23.6209 9.126C23.6809 8.874 23.7109 8.616 23.7109 8.352C23.7109 7.92 23.4589 7.704 22.9549 7.704C22.4629 7.704 21.9889 8.076 21.5329 8.82C21.0889 9.552 20.7889 10.314 20.6329 11.106V11.232C20.6329 11.64 20.6929 12.06 20.8129 12.492C20.9449 12.924 21.0109 13.224 21.0109 13.392C21.0109 13.8 20.5009 14.202 19.4809 14.598C19.3249 14.658 19.1869 14.688 19.0669 14.688C18.7669 14.688 18.5569 14.532 18.4369 14.22C18.3289 13.908 18.2749 13.422 18.2749 12.762C18.2749 11.058 18.3409 9.828 18.4729 9.072C18.6529 7.944 19.0609 6.894 19.6969 5.922C19.9129 5.586 20.1469 5.418 20.3989 5.418Z" fill="white"/>
<path d="M30.0669 5.418C30.4989 5.418 30.9069 5.832 31.2909 6.66C31.8549 6.072 32.5509 5.778 33.3789 5.778C34.2189 5.778 34.8489 5.964 35.2689 6.336C35.6889 6.696 35.8989 7.212 35.8989 7.884C35.8989 8.544 35.8089 9.216 35.6289 9.9C35.4609 10.584 35.3349 11.076 35.2509 11.376C35.1789 11.664 35.1429 11.904 35.1429 12.096C35.1429 12.288 35.2089 12.384 35.3409 12.384C35.5209 12.384 35.7429 12.27 36.0069 12.042C36.2709 11.814 36.5349 11.568 36.7989 11.304C37.0629 11.028 37.3029 10.776 37.5189 10.548C37.7469 10.32 37.9029 10.206 37.9869 10.206C38.1549 10.206 38.2389 10.41 38.2389 10.818C38.2389 11.658 37.8249 12.468 36.9969 13.248C35.6049 14.064 34.7169 14.472 34.3329 14.472C34.2969 14.472 34.2729 14.466 34.2609 14.454C33.3009 14.454 32.8209 13.686 32.8209 12.15C32.8209 11.49 32.8809 10.884 33.0009 10.332C33.1329 9.78 33.2289 9.378 33.2889 9.126C33.3489 8.874 33.3789 8.616 33.3789 8.352C33.3789 7.92 33.1269 7.704 32.6229 7.704C32.1309 7.704 31.6569 8.076 31.2009 8.82C30.7569 9.552 30.4569 10.314 30.3009 11.106V11.232C30.3009 11.64 30.3609 12.06 30.4809 12.492C30.6129 12.924 30.6789 13.224 30.6789 13.392C30.6789 13.8 30.1689 14.202 29.1489 14.598C28.9929 14.658 28.8549 14.688 28.7349 14.688C28.4349 14.688 28.2249 14.532 28.1049 14.22C27.9969 13.908 27.9429 13.422 27.9429 12.762C27.9429 11.058 28.0089 9.828 28.1409 9.072C28.3209 7.944 28.7289 6.894 29.3649 5.922C29.5809 5.586 29.8149 5.418 30.0669 5.418Z" fill="white"/>
<path d="M42.1829 13.086C41.5829 13.914 40.7789 14.328 39.7709 14.328C38.9549 14.328 38.3009 14.16 37.8089 13.824C37.3289 13.476 37.0889 12.93 37.0889 12.186C37.0889 11.874 37.1309 11.586 37.2149 11.322C37.3109 11.058 37.4609 10.734 37.6649 10.35L38.1869 6.084C38.5589 5.796 39.0629 5.652 39.6989 5.652C40.2389 5.652 40.5449 6.012 40.6169 6.732C40.6409 6.948 40.6529 7.206 40.6529 7.506C40.6529 7.794 40.6049 8.1 40.5089 8.424C40.0289 10.08 39.7949 11.19 39.8069 11.754C39.8069 12.186 40.0589 12.402 40.5629 12.402C41.0669 12.402 41.4389 12.24 41.6789 11.916C41.9189 11.592 42.1229 11.19 42.2909 10.71C42.6029 9.378 42.8909 8.28 43.1549 7.416C43.4309 6.552 43.6049 6.036 43.6769 5.868C43.7969 5.58 44.0249 5.43 44.3609 5.418C44.6969 5.43 45.3149 6.138 45.3149 6.138C45.6149 6.594 45.7649 6.948 45.7649 7.2C45.7409 8.04 45.2189 10.158 44.1989 13.554C44.9789 12.942 45.7529 12.192 46.5209 11.304C46.7849 10.992 47.0069 10.734 47.1869 10.53C47.3669 10.314 47.5109 10.206 47.6189 10.206C47.7869 10.206 47.8709 10.398 47.8709 10.782C47.8709 11.538 47.4449 12.42 46.5929 13.428C45.7529 14.436 44.7209 15.222 43.4969 15.786C43.3529 16.266 43.1969 16.722 43.0289 17.154C42.8609 17.586 42.6449 17.964 42.3809 18.288C41.8049 18.984 40.9289 19.332 39.7529 19.332C38.9609 19.332 38.2829 19.104 37.7189 18.648C37.1669 18.192 36.8909 17.622 36.8909 16.938C36.8909 16.554 37.0169 16.248 37.2689 16.02C37.5329 15.792 37.8869 15.6 38.3309 15.444C38.7869 15.3 39.3149 15.168 39.9149 15.048C40.5149 14.94 41.1569 14.802 41.8409 14.634C42.0089 13.914 42.1229 13.398 42.1829 13.086ZM39.7349 17.946C40.2989 17.946 40.8089 17.454 41.2649 16.47C40.8329 16.554 40.4489 16.614 40.1129 16.65C39.7769 16.698 39.4889 16.74 39.2489 16.776C38.7689 16.848 38.5349 16.974 38.5469 17.154C38.5469 17.382 38.6789 17.574 38.9429 17.73C39.2189 17.886 39.4829 17.958 39.7349 17.946Z" fill="white"/>
<path d="M50.5557 13.608C50.5557 14.316 49.8657 14.67 48.4857 14.67C48.1857 14.67 48.0057 14.52 47.9457 14.22C47.8977 13.908 47.8737 13.476 47.8737 12.924C47.8737 11.76 48.1077 10.32 48.5757 8.604C49.3557 5.772 50.1897 4.104 51.0777 3.6C51.1977 3.528 51.3297 3.492 51.4737 3.492C51.6177 3.492 51.6897 3.726 51.6897 4.194C51.6897 4.662 51.6657 5.076 51.6177 5.436C51.5217 6.156 51.3477 7.086 51.0957 8.226C50.8557 9.366 50.7357 10.038 50.7357 10.242L50.5557 13.608ZM51.7797 8.766C51.7797 8.61 51.8637 8.508 52.0317 8.46C52.2117 8.412 52.4337 8.37 52.6977 8.334C52.9617 8.286 53.2497 8.22 53.5617 8.136C53.8737 8.052 54.1617 7.896 54.4257 7.668C55.0377 7.14 55.3437 6.258 55.3437 5.022C55.3437 4.23 55.0737 3.624 54.5337 3.204C54.0057 2.784 53.2377 2.574 52.2297 2.574C51.2337 2.574 50.2977 2.784 49.4217 3.204C49.0977 3.36 48.8037 3.504 48.5397 3.636C48.2877 3.768 48.0537 3.834 47.8377 3.834C47.6217 3.834 47.5137 3.768 47.5137 3.636C47.5137 3.432 47.7117 3.096 48.1077 2.628C48.5037 2.196 49.1277 1.794 49.9797 1.422C50.8437 1.05 51.7497 0.864 52.6977 0.864C54.4857 0.852 55.8777 1.272 56.8737 2.124C57.7377 2.868 58.1697 3.834 58.1697 5.022C58.1697 6.198 57.7437 7.254 56.8917 8.19C56.0397 9.114 54.9717 9.576 53.6877 9.576C52.4157 9.576 51.7797 9.306 51.7797 8.766Z" fill="white"/>
<path d="M60.1552 14.454C58.9552 14.454 58.3552 13.332 58.3552 11.088C58.3552 9.864 58.5052 8.754 58.8052 7.758C59.2732 6.222 59.8012 5.454 60.3892 5.454C60.7372 5.454 61.0132 5.688 61.2172 6.156C61.3852 6.516 61.4632 6.87 61.4512 7.218C61.4512 7.698 61.3072 8.544 61.0192 9.756C60.7432 10.812 60.6052 11.466 60.6052 11.718C60.6052 11.97 60.6652 12.144 60.7852 12.24C60.9172 12.336 61.0672 12.384 61.2352 12.384C61.4152 12.384 61.6372 12.27 61.9012 12.042C62.1652 11.814 62.4292 11.568 62.6932 11.304C62.9572 11.028 63.1972 10.776 63.4132 10.548C63.6412 10.32 63.7972 10.206 63.8812 10.206C64.0492 10.206 64.1332 10.41 64.1332 10.818C64.1332 11.658 63.7072 12.48 62.8552 13.284C62.0152 14.076 61.1152 14.466 60.1552 14.454ZM60.8932 3.996C60.5692 3.516 60.4072 3 60.4072 2.448C60.4072 1.896 60.4912 1.44 60.6592 1.08C60.8392 0.708 61.0072 0.438 61.1632 0.27C61.3192 0.0899999 61.4992 0 61.7032 0C62.0392 0 62.3452 0.252 62.6212 0.756C62.8972 1.248 63.0352 1.662 63.0352 1.998C63.0352 2.622 62.8132 3.114 62.3692 3.474C61.9372 3.822 61.4452 3.996 60.8932 3.996Z" fill="white"/>
<path d="M67.2474 14.454C65.5314 14.466 64.3614 13.824 63.7374 12.528C63.5214 12.072 63.4134 11.502 63.4134 10.818C63.4134 10.122 63.4734 9.384 63.5934 8.604C63.8334 7.044 64.2954 5.604 64.9794 4.284C65.3274 3.612 65.7174 3.036 66.1494 2.556C67.0974 1.5 68.1534 0.977999 69.3174 0.989999C69.8334 0.989999 70.2354 1.134 70.5234 1.422C70.8234 1.698 70.9734 2.1 70.9734 2.628C70.9734 3.156 70.8174 3.69 70.5054 4.23C70.1934 4.758 69.7914 5.31 69.2994 5.886C68.8194 6.45 68.2854 7.044 67.6974 7.668C67.1094 8.292 66.5334 8.97 65.9694 9.702V10.422C65.9694 11.094 66.1134 11.586 66.4014 11.898C66.6894 12.21 67.0254 12.366 67.4094 12.366C68.4414 12.366 69.3534 11.856 70.1454 10.836C70.4694 10.416 70.7154 10.206 70.8834 10.206C71.0514 10.206 71.1354 10.41 71.1354 10.818C71.1354 11.226 71.0214 11.646 70.7934 12.078C70.5774 12.498 70.2894 12.888 69.9294 13.248C69.5694 13.596 69.1554 13.884 68.6874 14.112C68.2194 14.34 67.7394 14.454 67.2474 14.454ZM68.2194 4.788C68.4714 4.476 68.6694 4.194 68.8134 3.942C68.9574 3.69 69.0294 3.432 69.0294 3.168C69.0294 2.892 68.9334 2.754 68.7414 2.754C68.3214 2.754 67.8534 3.186 67.3374 4.05C66.8334 4.914 66.4554 6.048 66.2034 7.452C66.6114 6.828 66.9834 6.306 67.3194 5.886C67.6674 5.466 67.9674 5.1 68.2194 4.788Z" fill="white"/>
<path d="M77.3433 12.87C76.3953 13.986 75.2553 14.544 73.9233 14.544C72.6033 14.544 71.6133 14.208 70.9533 13.536C70.2933 12.852 69.9693 12.006 69.9813 10.998C69.9693 9.57 70.4193 8.34 71.3313 7.308C72.2433 6.276 73.4373 5.76 74.9133 5.76C75.5853 5.76 76.1253 5.844 76.5333 6.012C77.2413 6.3 77.5953 6.57 77.5953 6.822C77.5953 7.014 77.0973 7.116 76.1013 7.128C75.1173 7.128 74.2893 7.47 73.6173 8.154C72.9573 8.826 72.6273 9.678 72.6273 10.71C72.6273 11.25 72.7833 11.706 73.0953 12.078C73.4193 12.438 73.8693 12.618 74.4453 12.618C75.0333 12.618 75.5193 12.498 75.9033 12.258C75.0513 11.682 74.6253 10.848 74.6253 9.756C74.6133 9.18 74.8173 8.658 75.2373 8.19C75.6693 7.71 76.2153 7.47 76.8753 7.47C77.5473 7.458 78.0273 7.638 78.3153 8.01C78.6033 8.382 78.7473 8.862 78.7473 9.45C78.7473 10.026 78.6093 10.638 78.3333 11.286H78.4413C78.9693 11.274 79.4253 11.088 79.8093 10.728C79.9533 10.584 80.0733 10.458 80.1693 10.35C80.2773 10.242 80.3853 10.188 80.4933 10.188C80.6613 10.188 80.7453 10.386 80.7453 10.782C80.7453 11.514 80.5293 12.066 80.0973 12.438C79.6653 12.798 79.1853 12.978 78.6573 12.978C78.1413 12.978 77.7033 12.942 77.3433 12.87ZM77.1813 10.782C77.3853 10.35 77.4873 9.93 77.4873 9.522C77.4873 9.114 77.3553 8.91 77.0913 8.91C76.9833 8.91 76.8933 8.988 76.8213 9.144C76.7493 9.3 76.7133 9.45 76.7133 9.594C76.7133 10.074 76.8693 10.47 77.1813 10.782Z" fill="white"/>
<path d="M80.6368 13.428C80.5048 13.104 80.4088 12.732 80.3488 12.312C80.2888 11.88 80.2588 11.28 80.2588 10.512C80.2588 9.744 80.4028 8.706 80.6908 7.398H79.8808C79.7368 7.398 79.6648 7.338 79.6648 7.218C79.6648 6.93 79.6888 6.696 79.7368 6.516C79.7968 6.324 79.9288 6.108 80.1328 5.868H80.5648C80.7328 5.868 80.9128 5.862 81.1048 5.85C81.6808 4.002 82.2688 3.078 82.8688 3.078C83.3488 3.09 83.6848 3.396 83.8768 3.996C83.9248 4.164 83.9788 4.344 84.0388 4.536L83.3008 5.832C84.1408 5.856 84.6688 5.868 84.8848 5.868C85.1128 5.868 85.2328 5.892 85.2448 5.94C85.2688 5.976 85.2808 6.036 85.2808 6.12C85.2808 6.336 85.2268 6.606 85.1188 6.93C85.0228 7.254 84.9088 7.41 84.7768 7.398L82.9768 7.308C82.7248 8.772 82.5988 9.984 82.5988 10.944C82.5988 11.904 82.7368 12.384 83.0128 12.384C83.2408 12.384 83.6548 12.198 84.2548 11.826C84.8548 11.442 85.2868 11.076 85.5508 10.728C85.8148 10.38 86.0308 10.206 86.1988 10.206C86.3668 10.206 86.4508 10.41 86.4508 10.818C86.4508 11.226 86.3068 11.646 86.0188 12.078C85.7308 12.498 85.3648 12.888 84.9208 13.248C84.4888 13.596 84.0028 13.884 83.4628 14.112C82.9348 14.34 82.4728 14.454 82.0768 14.454C81.6808 14.454 81.3748 14.364 81.1588 14.184C80.9548 13.992 80.7808 13.74 80.6368 13.428Z" fill="white"/>
</svg>
