<svg width="87" height="20" viewBox="0 0 87 20" fill="none" xmlns="http://www.w3.org/2000/svg">
<path d="M3.12208 14.2081C3.12208 14.9161 2.43208 15.2701 1.05208 15.2701C0.752078 15.2701 0.572078 15.1201 0.512078 14.8201C0.464078 14.5081 0.440078 14.0761 0.440078 13.5241C0.440078 12.3601 0.674078 10.9201 1.14208 9.2041C1.92208 6.3721 2.75608 4.7041 3.64408 4.2001C3.76408 4.1281 3.89608 4.0921 4.04008 4.0921C4.18408 4.0921 4.25608 4.3261 4.25608 4.7941C4.25608 5.2621 4.23208 5.6761 4.18408 6.0361C4.08808 6.7561 3.91408 7.6861 3.66208 8.8261C3.42208 9.9661 3.30208 10.6381 3.30208 10.8421L3.12208 14.2081ZM4.34608 9.3661C4.34608 9.2101 4.43008 9.1081 4.59808 9.0601C4.77808 9.0121 5.00008 8.9701 5.26408 8.9341C5.52808 8.8861 5.81608 8.8201 6.12808 8.7361C6.44008 8.6521 6.72808 8.4961 6.99208 8.2681C7.60408 7.7401 7.91008 6.8581 7.91008 5.6221C7.91008 4.8301 7.64008 4.2241 7.10008 3.8041C6.57208 3.3841 5.80408 3.1741 4.79608 3.1741C3.80008 3.1741 2.86408 3.3841 1.98808 3.8041C1.66408 3.9601 1.37008 4.1041 1.10608 4.2361C0.854078 4.3681 0.620078 4.4341 0.404078 4.4341C0.188078 4.4341 0.0800781 4.3681 0.0800781 4.2361C0.0800781 4.0321 0.278078 3.6961 0.674078 3.2281C1.07008 2.7961 1.69408 2.3941 2.54608 2.0221C3.41008 1.6501 4.31608 1.4641 5.26408 1.4641C7.05208 1.4521 8.44408 1.8721 9.44008 2.7241C10.3041 3.4681 10.7361 4.4341 10.7361 5.6221C10.7361 6.7981 10.3101 7.8541 9.45808 8.7901C8.60608 9.7141 7.53808 10.1761 6.25408 10.1761C4.98208 10.1761 4.34608 9.9061 4.34608 9.3661Z" fill="black"/>
<path d="M14.7556 13.0381C15.6916 13.0381 16.5976 12.6661 17.4736 11.9221C17.7976 11.6461 18.0616 11.3941 18.2656 11.1661C18.4696 10.9261 18.6256 10.8061 18.7336 10.8061C18.9016 10.8061 18.9856 10.9741 18.9856 11.3101C18.9856 11.6461 18.8956 12.0241 18.7156 12.4441C18.5356 12.8521 18.2356 13.2541 17.8156 13.6501C16.7836 14.6221 15.3676 15.1081 13.5676 15.1081C12.1396 15.1081 11.1676 14.5921 10.6516 13.5601C10.4716 13.2001 10.3816 12.6841 10.3816 12.0121C10.3816 11.3401 10.5136 10.6441 10.7776 9.9241C11.0416 9.1921 11.3896 8.5621 11.8216 8.0341C12.2656 7.5061 12.7756 7.0981 13.3516 6.8101C13.9276 6.5101 14.5396 6.3601 15.1876 6.3601C15.8476 6.3601 16.3516 6.5221 16.6996 6.8461C17.0596 7.1701 17.2396 7.5901 17.2396 8.1061C17.2396 8.6221 17.1076 9.0481 16.8436 9.3841C16.5916 9.7081 16.2616 9.9841 15.8536 10.2121C15.4456 10.4281 14.9896 10.6261 14.4856 10.8061C13.9936 10.9741 13.5076 11.1661 13.0276 11.3821V11.8321C13.0396 12.2641 13.2196 12.5701 13.5676 12.7501C13.9156 12.9301 14.3116 13.0261 14.7556 13.0381ZM14.4496 7.9621C13.8256 7.9621 13.3936 8.6881 13.1536 10.1401C13.4056 9.9721 13.6396 9.8221 13.8556 9.6901C14.0836 9.5581 14.2816 9.4321 14.4496 9.3121C14.8096 9.0481 14.9956 8.7481 15.0076 8.4121C15.0076 8.1121 14.8216 7.9621 14.4496 7.9621Z" fill="black"/>
<path d="M20.479 6.0181C20.911 6.0181 21.319 6.4321 21.703 7.2601C22.267 6.6721 22.963 6.3781 23.791 6.3781C24.631 6.3781 25.261 6.5641 25.681 6.9361C26.101 7.2961 26.311 7.8121 26.311 8.4841C26.311 9.1441 26.221 9.8161 26.041 10.5001C25.873 11.1841 25.747 11.6761 25.663 11.9761C25.591 12.2641 25.555 12.5041 25.555 12.6961C25.555 12.8881 25.621 12.9841 25.753 12.9841C25.933 12.9841 26.155 12.8701 26.419 12.6421C26.683 12.4141 26.947 12.1681 27.211 11.9041C27.475 11.6281 27.715 11.3761 27.931 11.1481C28.159 10.9201 28.315 10.8061 28.399 10.8061C28.567 10.8061 28.651 11.0101 28.651 11.4181C28.651 12.2581 28.237 13.0681 27.409 13.8481C26.017 14.6641 25.129 15.0721 24.745 15.0721C24.709 15.0721 24.685 15.0661 24.673 15.0541C23.713 15.0541 23.233 14.2861 23.233 12.7501C23.233 12.0901 23.293 11.4841 23.413 10.9321C23.545 10.3801 23.641 9.9781 23.701 9.7261C23.761 9.4741 23.791 9.2161 23.791 8.9521C23.791 8.5201 23.539 8.3041 23.035 8.3041C22.543 8.3041 22.069 8.6761 21.613 9.4201C21.169 10.1521 20.869 10.9141 20.713 11.7061V11.8321C20.713 12.2401 20.773 12.6601 20.893 13.0921C21.025 13.5241 21.091 13.8241 21.091 13.9921C21.091 14.4001 20.581 14.8021 19.561 15.1981C19.405 15.2581 19.267 15.2881 19.147 15.2881C18.847 15.2881 18.637 15.1321 18.517 14.8201C18.409 14.5081 18.355 14.0221 18.355 13.3621C18.355 11.6581 18.421 10.4281 18.553 9.6721C18.733 8.5441 19.141 7.4941 19.777 6.5221C19.993 6.1861 20.227 6.0181 20.479 6.0181Z" fill="black"/>
<path d="M30.147 6.0181C30.579 6.0181 30.987 6.4321 31.371 7.2601C31.935 6.6721 32.631 6.3781 33.459 6.3781C34.299 6.3781 34.929 6.5641 35.349 6.9361C35.769 7.2961 35.979 7.8121 35.979 8.4841C35.979 9.1441 35.889 9.8161 35.709 10.5001C35.541 11.1841 35.415 11.6761 35.331 11.9761C35.259 12.2641 35.223 12.5041 35.223 12.6961C35.223 12.8881 35.289 12.9841 35.421 12.9841C35.601 12.9841 35.823 12.8701 36.087 12.6421C36.351 12.4141 36.615 12.1681 36.879 11.9041C37.143 11.6281 37.383 11.3761 37.599 11.1481C37.827 10.9201 37.983 10.8061 38.067 10.8061C38.235 10.8061 38.319 11.0101 38.319 11.4181C38.319 12.2581 37.905 13.0681 37.077 13.8481C35.685 14.6641 34.797 15.0721 34.413 15.0721C34.377 15.0721 34.353 15.0661 34.341 15.0541C33.381 15.0541 32.901 14.2861 32.901 12.7501C32.901 12.0901 32.961 11.4841 33.081 10.9321C33.213 10.3801 33.309 9.9781 33.369 9.7261C33.429 9.4741 33.459 9.2161 33.459 8.9521C33.459 8.5201 33.207 8.3041 32.703 8.3041C32.211 8.3041 31.737 8.6761 31.281 9.4201C30.837 10.1521 30.537 10.9141 30.381 11.7061V11.8321C30.381 12.2401 30.441 12.6601 30.561 13.0921C30.693 13.5241 30.759 13.8241 30.759 13.9921C30.759 14.4001 30.249 14.8021 29.229 15.1981C29.073 15.2581 28.935 15.2881 28.815 15.2881C28.515 15.2881 28.305 15.1321 28.185 14.8201C28.077 14.5081 28.023 14.0221 28.023 13.3621C28.023 11.6581 28.089 10.4281 28.221 9.6721C28.401 8.5441 28.809 7.4941 29.445 6.5221C29.661 6.1861 29.895 6.0181 30.147 6.0181Z" fill="black"/>
<path d="M42.2629 13.6861C41.6629 14.5141 40.8589 14.9281 39.8509 14.9281C39.0349 14.9281 38.3809 14.7601 37.8889 14.4241C37.4089 14.0761 37.1689 13.5301 37.1689 12.7861C37.1689 12.4741 37.2109 12.1861 37.2949 11.9221C37.3909 11.6581 37.5409 11.3341 37.7449 10.9501L38.2669 6.6841C38.6389 6.3961 39.1429 6.2521 39.7789 6.2521C40.3189 6.2521 40.6249 6.6121 40.6969 7.3321C40.7209 7.5481 40.7329 7.8061 40.7329 8.1061C40.7329 8.3941 40.6849 8.7001 40.5889 9.0241C40.1089 10.6801 39.8749 11.7901 39.8869 12.3541C39.8869 12.7861 40.1389 13.0021 40.6429 13.0021C41.1469 13.0021 41.5189 12.8401 41.7589 12.5161C41.9989 12.1921 42.2029 11.7901 42.3709 11.3101C42.6829 9.9781 42.9709 8.8801 43.2349 8.0161C43.5109 7.1521 43.6849 6.6361 43.7569 6.4681C43.8769 6.1801 44.1049 6.0301 44.4409 6.0181C44.7769 6.0301 45.3949 6.7381 45.3949 6.7381C45.6949 7.1941 45.8449 7.5481 45.8449 7.8001C45.8209 8.6401 45.2989 10.7581 44.2789 14.1541C45.0589 13.5421 45.8329 12.7921 46.6009 11.9041C46.8649 11.5921 47.0869 11.3341 47.2669 11.1301C47.4469 10.9141 47.5909 10.8061 47.6989 10.8061C47.8669 10.8061 47.9509 10.9981 47.9509 11.3821C47.9509 12.1381 47.5249 13.0201 46.6729 14.0281C45.8329 15.0361 44.8009 15.8221 43.5769 16.3861C43.4329 16.8661 43.2769 17.3221 43.1089 17.7541C42.9409 18.1861 42.7249 18.5641 42.4609 18.8881C41.8849 19.5841 41.0089 19.9321 39.8329 19.9321C39.0409 19.9321 38.3629 19.7041 37.7989 19.2481C37.2469 18.7921 36.9709 18.2221 36.9709 17.5381C36.9709 17.1541 37.0969 16.8481 37.3489 16.6201C37.6129 16.3921 37.9669 16.2001 38.4109 16.0441C38.8669 15.9001 39.3949 15.7681 39.9949 15.6481C40.5949 15.5401 41.2369 15.4021 41.9209 15.2341C42.0889 14.5141 42.2029 13.9981 42.2629 13.6861ZM39.8149 18.5461C40.3789 18.5461 40.8889 18.0541 41.3449 17.0701C40.9129 17.1541 40.5289 17.2141 40.1929 17.2501C39.8569 17.2981 39.5689 17.3401 39.3289 17.3761C38.8489 17.4481 38.6149 17.5741 38.6269 17.7541C38.6269 17.9821 38.7589 18.1741 39.0229 18.3301C39.2989 18.4861 39.5629 18.5581 39.8149 18.5461Z" fill="#7F3DFF"/>
<path d="M50.6357 14.2081C50.6357 14.9161 49.9458 15.2701 48.5658 15.2701C48.2658 15.2701 48.0857 15.1201 48.0257 14.8201C47.9777 14.5081 47.9538 14.0761 47.9538 13.5241C47.9538 12.3601 48.1878 10.9201 48.6558 9.2041C49.4358 6.3721 50.2697 4.7041 51.1577 4.2001C51.2777 4.1281 51.4097 4.0921 51.5537 4.0921C51.6977 4.0921 51.7697 4.3261 51.7697 4.7941C51.7697 5.2621 51.7458 5.6761 51.6978 6.0361C51.6017 6.7561 51.4278 7.6861 51.1758 8.8261C50.9358 9.9661 50.8158 10.6381 50.8158 10.8421L50.6357 14.2081ZM51.8597 9.3661C51.8597 9.2101 51.9438 9.1081 52.1118 9.0601C52.2918 9.0121 52.5138 8.9701 52.7778 8.9341C53.0418 8.8861 53.3298 8.8201 53.6418 8.7361C53.9538 8.6521 54.2417 8.4961 54.5057 8.2681C55.1177 7.7401 55.4238 6.8581 55.4238 5.6221C55.4238 4.8301 55.1538 4.2241 54.6138 3.8041C54.0858 3.3841 53.3177 3.1741 52.3097 3.1741C51.3137 3.1741 50.3778 3.3841 49.5018 3.8041C49.1778 3.9601 48.8838 4.1041 48.6198 4.2361C48.3678 4.3681 48.1338 4.4341 47.9178 4.4341C47.7018 4.4341 47.5938 4.3681 47.5938 4.2361C47.5938 4.0321 47.7918 3.6961 48.1878 3.2281C48.5838 2.7961 49.2077 2.3941 50.0597 2.0221C50.9237 1.6501 51.8298 1.4641 52.7778 1.4641C54.5658 1.4521 55.9578 1.8721 56.9538 2.7241C57.8178 3.4681 58.2497 4.4341 58.2497 5.6221C58.2497 6.7981 57.8238 7.8541 56.9718 8.7901C56.1198 9.7141 55.0518 10.1761 53.7677 10.1761C52.4957 10.1761 51.8597 9.9061 51.8597 9.3661Z" fill="black"/>
<path d="M60.2352 15.0541C59.0352 15.0541 58.4352 13.9321 58.4352 11.6881C58.4352 10.4641 58.5852 9.3541 58.8852 8.3581C59.3532 6.8221 59.8812 6.0541 60.4692 6.0541C60.8172 6.0541 61.0932 6.2881 61.2972 6.7561C61.4652 7.1161 61.5432 7.4701 61.5312 7.8181C61.5312 8.2981 61.3872 9.1441 61.0992 10.3561C60.8232 11.4121 60.6852 12.0661 60.6852 12.3181C60.6852 12.5701 60.7452 12.7441 60.8652 12.8401C60.9972 12.9361 61.1472 12.9841 61.3152 12.9841C61.4952 12.9841 61.7172 12.8701 61.9812 12.6421C62.2452 12.4141 62.5092 12.1681 62.7732 11.9041C63.0372 11.6281 63.2772 11.3761 63.4932 11.1481C63.7212 10.9201 63.8772 10.8061 63.9612 10.8061C64.1292 10.8061 64.2132 11.0101 64.2132 11.4181C64.2132 12.2581 63.7872 13.0801 62.9352 13.8841C62.0952 14.6761 61.1952 15.0661 60.2352 15.0541ZM60.9732 4.5961C60.6492 4.1161 60.4872 3.6001 60.4872 3.0481C60.4872 2.4961 60.5712 2.0401 60.7392 1.6801C60.9192 1.3081 61.0872 1.0381 61.2432 0.870097C61.3992 0.690098 61.5792 0.600098 61.7832 0.600098C62.1192 0.600098 62.4252 0.852098 62.7012 1.3561C62.9772 1.8481 63.1152 2.2621 63.1152 2.5981C63.1152 3.2221 62.8932 3.7141 62.4492 4.0741C62.0172 4.4221 61.5252 4.5961 60.9732 4.5961Z" fill="black"/>
<path d="M67.3275 15.0541C65.6115 15.0661 64.4415 14.4241 63.8175 13.1281C63.6015 12.6721 63.4935 12.1021 63.4935 11.4181C63.4935 10.7221 63.5535 9.9841 63.6735 9.2041C63.9135 7.6441 64.3755 6.2041 65.0595 4.8841C65.4075 4.2121 65.7975 3.6361 66.2295 3.1561C67.1775 2.1001 68.2335 1.5781 69.3975 1.5901C69.9135 1.5901 70.3155 1.7341 70.6035 2.0221C70.9035 2.2981 71.0535 2.7001 71.0535 3.2281C71.0535 3.7561 70.8975 4.2901 70.5855 4.8301C70.2735 5.3581 69.8715 5.9101 69.3795 6.4861C68.8995 7.0501 68.3655 7.6441 67.7775 8.2681C67.1895 8.8921 66.6135 9.5701 66.0495 10.3021V11.0221C66.0495 11.6941 66.1935 12.1861 66.4815 12.4981C66.7695 12.8101 67.1055 12.9661 67.4895 12.9661C68.5215 12.9661 69.4335 12.4561 70.2255 11.4361C70.5495 11.0161 70.7955 10.8061 70.9635 10.8061C71.1315 10.8061 71.2155 11.0101 71.2155 11.4181C71.2155 11.8261 71.1015 12.2461 70.8735 12.6781C70.6575 13.0981 70.3695 13.4881 70.0095 13.8481C69.6495 14.1961 69.2355 14.4841 68.7675 14.7121C68.2995 14.9401 67.8195 15.0541 67.3275 15.0541ZM68.2995 5.3881C68.5515 5.0761 68.7495 4.7941 68.8935 4.5421C69.0375 4.2901 69.1095 4.0321 69.1095 3.7681C69.1095 3.4921 69.0135 3.3541 68.8215 3.3541C68.4015 3.3541 67.9335 3.7861 67.4175 4.6501C66.9135 5.5141 66.5355 6.6481 66.2835 8.0521C66.6915 7.4281 67.0635 6.9061 67.3995 6.4861C67.7475 6.0661 68.0475 5.7001 68.2995 5.3881Z" fill="black"/>
<path d="M77.4234 13.4701C76.4754 14.5861 75.3354 15.1441 74.0034 15.1441C72.6834 15.1441 71.6934 14.8081 71.0334 14.1361C70.3734 13.4521 70.0494 12.6061 70.0614 11.5981C70.0494 10.1701 70.4994 8.9401 71.4114 7.9081C72.3234 6.8761 73.5174 6.3601 74.9934 6.3601C75.6654 6.3601 76.2054 6.4441 76.6134 6.6121C77.3214 6.9001 77.6754 7.1701 77.6754 7.4221C77.6754 7.6141 77.1774 7.7161 76.1814 7.7281C75.1974 7.7281 74.3694 8.0701 73.6974 8.7541C73.0374 9.4261 72.7074 10.2781 72.7074 11.3101C72.7074 11.8501 72.8634 12.3061 73.1754 12.6781C73.4994 13.0381 73.9494 13.2181 74.5254 13.2181C75.1134 13.2181 75.5994 13.0981 75.9834 12.8581C75.1314 12.2821 74.7054 11.4481 74.7054 10.3561C74.6934 9.7801 74.8974 9.2581 75.3174 8.7901C75.7494 8.3101 76.2954 8.0701 76.9554 8.0701C77.6274 8.0581 78.1074 8.2381 78.3954 8.6101C78.6834 8.9821 78.8274 9.4621 78.8274 10.0501C78.8274 10.6261 78.6894 11.2381 78.4134 11.8861H78.5214C79.0494 11.8741 79.5054 11.6881 79.8894 11.3281C80.0334 11.1841 80.1534 11.0581 80.2494 10.9501C80.3574 10.8421 80.4654 10.7881 80.5734 10.7881C80.7414 10.7881 80.8254 10.9861 80.8254 11.3821C80.8254 12.1141 80.6094 12.6661 80.1774 13.0381C79.7454 13.3981 79.2654 13.5781 78.7374 13.5781C78.2214 13.5781 77.7834 13.5421 77.4234 13.4701ZM77.2614 11.3821C77.4654 10.9501 77.5674 10.5301 77.5674 10.1221C77.5674 9.7141 77.4354 9.5101 77.1714 9.5101C77.0634 9.5101 76.9734 9.5881 76.9014 9.7441C76.8294 9.9001 76.7934 10.0501 76.7934 10.1941C76.7934 10.6741 76.9494 11.0701 77.2614 11.3821Z" fill="black"/>
<path d="M80.7168 14.0281C80.5848 13.7041 80.4888 13.3321 80.4288 12.9121C80.3688 12.4801 80.3388 11.8801 80.3388 11.1121C80.3388 10.3441 80.4828 9.3061 80.7708 7.9981H79.9608C79.8168 7.9981 79.7448 7.9381 79.7448 7.8181C79.7448 7.5301 79.7688 7.2961 79.8168 7.1161C79.8768 6.9241 80.0088 6.7081 80.2128 6.4681H80.6448C80.8128 6.4681 80.9928 6.4621 81.1848 6.4501C81.7608 4.6021 82.3488 3.6781 82.9488 3.6781C83.4288 3.6901 83.7648 3.9961 83.9568 4.5961C84.0048 4.7641 84.0588 4.9441 84.1188 5.1361L83.3808 6.4321C84.2208 6.4561 84.7488 6.4681 84.9648 6.4681C85.1928 6.4681 85.3128 6.4921 85.3248 6.5401C85.3488 6.5761 85.3608 6.6361 85.3608 6.7201C85.3608 6.9361 85.3068 7.2061 85.1988 7.5301C85.1028 7.8541 84.9888 8.0101 84.8568 7.9981L83.0568 7.9081C82.8048 9.3721 82.6788 10.5841 82.6788 11.5441C82.6788 12.5041 82.8168 12.9841 83.0928 12.9841C83.3208 12.9841 83.7348 12.7981 84.3348 12.4261C84.9348 12.0421 85.3668 11.6761 85.6308 11.3281C85.8948 10.9801 86.1108 10.8061 86.2788 10.8061C86.4468 10.8061 86.5308 11.0101 86.5308 11.4181C86.5308 11.8261 86.3868 12.2461 86.0988 12.6781C85.8108 13.0981 85.4448 13.4881 85.0008 13.8481C84.5688 14.1961 84.0828 14.4841 83.5428 14.7121C83.0148 14.9401 82.5528 15.0541 82.1568 15.0541C81.7608 15.0541 81.4548 14.9641 81.2388 14.7841C81.0348 14.5921 80.8608 14.3401 80.7168 14.0281Z" fill="black"/>
</svg>
