<svg width="30" height="33" viewBox="0 0 30 33" fill="none" xmlns="http://www.w3.org/2000/svg">
<path d="M28.75 26.25C28.4185 26.25 28.1005 26.3817 27.8661 26.6161C27.6317 26.8505 27.5 27.1685 27.5 27.5C27.4983 27.9384 27.3812 28.3686 27.1607 28.7476C26.9402 29.1265 26.6239 29.4407 26.2436 29.6588C25.8632 29.8769 25.4322 29.9911 24.9938 29.99C24.5554 29.9889 24.125 29.8726 23.7457 29.6526C23.3665 29.4326 23.0517 29.1168 22.8331 28.7368C22.6145 28.3568 22.4996 27.926 22.5 27.4876C22.5005 27.0491 22.6162 26.6185 22.8356 26.239C23.055 25.8594 23.3703 25.5442 23.75 25.325C23.7149 25.5816 23.7604 25.8428 23.8803 26.0725C24.0001 26.3022 24.1883 26.4889 24.4189 26.607C24.6495 26.725 24.911 26.7685 25.1674 26.7314C25.4238 26.6943 25.6623 26.5785 25.85 26.4L27.6125 24.6375C27.7297 24.5213 27.8226 24.383 27.8861 24.2307C27.9496 24.0784 27.9822 23.915 27.9822 23.75C27.9822 23.585 27.9496 23.4216 27.8861 23.2693C27.8226 23.1169 27.7297 22.9787 27.6125 22.8625L25.85 21.1C25.7338 20.9828 25.5955 20.8898 25.4432 20.8264C25.2909 20.7629 25.1275 20.7302 24.9625 20.7302C24.7975 20.7302 24.6341 20.7629 24.4818 20.8264C24.3295 20.8898 24.1912 20.9828 24.075 21.1C23.8853 21.2991 23.7666 21.5552 23.7372 21.8287C23.7078 22.1021 23.7694 22.3776 23.9125 22.6125C22.9931 22.8174 22.1502 23.2778 21.4811 23.9407C20.8119 24.6037 20.3436 25.4422 20.1301 26.3596C19.9166 27.2771 19.9666 28.2362 20.2744 29.1264C20.5822 30.0167 21.1352 30.8019 21.8697 31.3916C22.6042 31.9814 23.4904 32.3516 24.4261 32.4597C25.3619 32.5678 26.3091 32.4094 27.1588 32.0027C28.0084 31.596 28.7259 30.9576 29.2286 30.161C29.7312 29.3644 29.9986 28.4419 30 27.5C30 27.1685 29.8683 26.8505 29.6339 26.6161C29.3995 26.3817 29.0815 26.25 28.75 26.25Z" fill="#7F3DFF"/>
<path d="M23.225 1.91247C22.6809 1.57642 22.06 1.38508 21.4211 1.35664C20.7823 1.32819 20.1468 1.46359 19.575 1.74997L19.2 1.93747C19.0389 2.00991 18.8642 2.04736 18.6875 2.04736C18.5108 2.04736 18.3361 2.00991 18.175 1.93747L13.8875 0.262469C12.9965 -0.0923724 12.0035 -0.0923724 11.1125 0.262469L6.825 1.97497C6.66385 2.04741 6.48918 2.08486 6.3125 2.08486C6.13582 2.08486 5.96115 2.04741 5.8 1.97497L5.425 1.78747C4.85649 1.5036 4.22517 1.36885 3.5903 1.39587C2.95544 1.42289 2.33785 1.61079 1.79551 1.94194C1.25318 2.27309 0.80389 2.73662 0.48982 3.28902C0.17575 3.84142 0.00720275 4.46457 0 5.09997V23.75C0 25.4076 0.65848 26.9973 1.83058 28.1694C3.00269 29.3415 4.5924 30 6.25 30H17.975C17.67 29.2013 17.5092 28.3548 17.5 27.5V27.4C17.502 26.0538 17.8664 24.7329 18.5548 23.576C19.2432 22.4192 20.2303 21.4689 21.4125 20.825C21.5861 20.2216 21.9085 19.6714 22.35 19.225L22.5 19.0875C22.7367 18.879 22.9968 18.6986 23.275 18.55C23.734 18.3168 24.2361 18.1806 24.75 18.15H25V5.09997C25 4.4615 24.8369 3.83362 24.5263 3.27581C24.2156 2.71799 23.7677 2.24873 23.225 1.91247ZM15 21.25H7.5C7.16848 21.25 6.85054 21.1183 6.61612 20.8839C6.3817 20.6494 6.25 20.3315 6.25 20C6.25 19.6684 6.3817 19.3505 6.61612 19.1161C6.85054 18.8817 7.16848 18.75 7.5 18.75H15C15.3315 18.75 15.6495 18.8817 15.8839 19.1161C16.1183 19.3505 16.25 19.6684 16.25 20C16.25 20.3315 16.1183 20.6494 15.8839 20.8839C15.6495 21.1183 15.3315 21.25 15 21.25ZM17.5 13.75H7.5C7.16848 13.75 6.85054 13.6183 6.61612 13.3839C6.3817 13.1494 6.25 12.8315 6.25 12.5C6.25 12.1684 6.3817 11.8505 6.61612 11.6161C6.85054 11.3817 7.16848 11.25 7.5 11.25H17.5C17.8315 11.25 18.1495 11.3817 18.3839 11.6161C18.6183 11.8505 18.75 12.1684 18.75 12.5C18.75 12.8315 18.6183 13.1494 18.3839 13.3839C18.1495 13.6183 17.8315 13.75 17.5 13.75Z" fill="#7F3DFF"/>
</svg>
