<svg width="30" height="33" viewBox="0 0 30 33" fill="none" xmlns="http://www.w3.org/2000/svg">
<path d="M28.75 26.2536C28.4185 26.2536 28.1005 26.3853 27.8661 26.6198C27.6317 26.8542 27.5 27.1721 27.5 27.5036C27.4983 27.9421 27.3812 28.3723 27.1607 28.7512C26.9402 29.1301 26.6239 29.4444 26.2436 29.6625C25.8632 29.8805 25.4322 29.9948 24.9938 29.9937C24.5554 29.9926 24.125 29.8762 23.7457 29.6563C23.3665 29.4363 23.0517 29.1205 22.8331 28.7405C22.6145 28.3605 22.4996 27.9296 22.5 27.4912C22.5005 27.0528 22.6162 26.6222 22.8356 26.2426C23.055 25.8631 23.3703 25.5478 23.75 25.3286C23.7149 25.5853 23.7604 25.8465 23.8803 26.0762C24.0001 26.3058 24.1883 26.4926 24.4189 26.6106C24.6495 26.7287 24.911 26.7721 25.1674 26.7351C25.4238 26.698 25.6623 26.5822 25.85 26.4036L27.6125 24.6411C27.7297 24.5249 27.8226 24.3867 27.8861 24.2344C27.9496 24.082 27.9822 23.9186 27.9822 23.7536C27.9822 23.5886 27.9496 23.4252 27.8861 23.2729C27.8226 23.1206 27.7297 22.9823 27.6125 22.8661L25.85 21.1036C25.7338 20.9865 25.5955 20.8935 25.4432 20.83C25.2909 20.7666 25.1275 20.7339 24.9625 20.7339C24.7975 20.7339 24.6341 20.7666 24.4818 20.83C24.3294 20.8935 24.1912 20.9865 24.075 21.1036C23.8853 21.3028 23.7666 21.5589 23.7372 21.8323C23.7078 22.1058 23.7694 22.3813 23.9125 22.6161C22.9931 22.821 22.1502 23.2814 21.4811 23.9444C20.8119 24.6073 20.3436 25.4458 20.1301 26.3633C19.9166 27.2807 19.9666 28.2398 20.2744 29.1301C20.5822 30.0204 21.1352 30.8056 21.8697 31.3953C22.6042 31.985 23.4904 32.3553 24.4261 32.4634C25.3619 32.5715 26.3091 32.4131 27.1588 32.0064C28.0084 31.5997 28.7259 30.9613 29.2286 30.1646C29.7312 29.368 29.9986 28.4456 30 27.5036C30 27.1721 29.8683 26.8542 29.6339 26.6198C29.3995 26.3853 29.0815 26.2536 28.75 26.2536Z" fill="#C6C6C6"/>
<path d="M23.225 1.91613C22.6809 1.58008 22.06 1.38874 21.4211 1.3603C20.7823 1.33186 20.1468 1.46726 19.575 1.75363L19.2 1.94113C19.0389 2.01357 18.8642 2.05102 18.6875 2.05102C18.5108 2.05102 18.3361 2.01357 18.175 1.94113L13.8875 0.266131C12.9965 -0.0887103 12.0035 -0.0887103 11.1125 0.266131L6.825 1.97863C6.66385 2.05107 6.48918 2.08852 6.3125 2.08852C6.13582 2.08852 5.96115 2.05107 5.8 1.97863L5.425 1.79113C4.85649 1.50726 4.22517 1.37251 3.5903 1.39953C2.95544 1.42655 2.33785 1.61445 1.79551 1.9456C1.25318 2.27675 0.80389 2.74028 0.48982 3.29268C0.17575 3.84508 0.00720275 4.46823 0 5.10363V23.7536C0 25.4112 0.65848 27.0009 1.83058 28.173C3.00269 29.3452 4.5924 30.0036 6.25 30.0036H17.975C17.67 29.205 17.5092 28.3585 17.5 27.5036V27.4036C17.502 26.0574 17.8664 24.7366 18.5548 23.5797C19.2432 22.4228 20.2303 21.4726 21.4125 20.8286C21.5861 20.2252 21.9085 19.6751 22.35 19.2286L22.5 19.0911C22.7367 18.8827 22.9968 18.7023 23.275 18.5536C23.734 18.3205 24.2361 18.1843 24.75 18.1536H25V5.10363C25 4.46516 24.8369 3.83728 24.5263 3.27947C24.2156 2.72166 23.7677 2.25239 23.225 1.91613V1.91613ZM15 21.2536H7.5C7.16848 21.2536 6.85054 21.1219 6.61612 20.8875C6.3817 20.6531 6.25 20.3352 6.25 20.0036C6.25 19.6721 6.3817 19.3542 6.61612 19.1197C6.85054 18.8853 7.16848 18.7536 7.5 18.7536H15C15.3315 18.7536 15.6495 18.8853 15.8839 19.1197C16.1183 19.3542 16.25 19.6721 16.25 20.0036C16.25 20.3352 16.1183 20.6531 15.8839 20.8875C15.6495 21.1219 15.3315 21.2536 15 21.2536ZM17.5 13.7536H7.5C7.16848 13.7536 6.85054 13.6219 6.61612 13.3875C6.3817 13.1531 6.25 12.8352 6.25 12.5036C6.25 12.1721 6.3817 11.8542 6.61612 11.6197C6.85054 11.3853 7.16848 11.2536 7.5 11.2536H17.5C17.8315 11.2536 18.1495 11.3853 18.3839 11.6197C18.6183 11.8542 18.75 12.1721 18.75 12.5036C18.75 12.8352 18.6183 13.1531 18.3839 13.3875C18.1495 13.6219 17.8315 13.7536 17.5 13.7536Z" fill="#C6C6C6"/>
</svg>
