<svg width="26" height="32" viewBox="0 0 26 32" fill="none" xmlns="http://www.w3.org/2000/svg">
<path d="M21.8375 12.425C20.9854 11.5621 20.0077 10.833 18.9375 10.2625C18.6576 10.1059 18.3697 9.96408 18.075 9.83753C17.4808 9.56882 16.8664 9.3473 16.2375 9.17503L15.6375 9.03753C15.2 8.95003 14.775 8.88753 14.3875 8.83753H13.8H13.5C13.1796 8.81278 12.8579 8.81278 12.5375 8.83753H12.2625H11.8H11.625C11.2048 8.8736 10.7873 8.93623 10.375 9.02503L9.7875 9.16253C9.16405 9.33416 8.55407 9.55141 7.9625 9.81253C7.6625 9.95003 7.3625 10.0875 7.0875 10.2375C5.09664 11.3063 3.43272 12.8948 2.27275 14.8339C1.11278 16.7731 0.500141 18.9904 0.5 21.25V25C0.5 26.6576 1.15848 28.2473 2.33058 29.4194C3.50269 30.5915 5.0924 31.25 6.75 31.25H19.25C20.9076 31.25 22.4973 30.5915 23.6694 29.4194C24.8415 28.2473 25.5 26.6576 25.5 25V21.25C25.5077 19.6093 25.1876 17.9836 24.5587 16.4682C23.9298 14.9528 23.0046 13.5782 21.8375 12.425V12.425ZM12.375 18.75H13.625C14.4538 18.6671 15.2816 18.9169 15.9262 19.4443C16.5709 19.9718 16.9796 20.7337 17.0625 21.5625C17.1454 22.3913 16.8956 23.2191 16.3682 23.8638C15.8407 24.5084 15.0788 24.9171 14.25 25C14.25 25.3315 14.1183 25.6495 13.8839 25.8839C13.6495 26.1183 13.3315 26.25 13 26.25C12.6685 26.25 12.3505 26.1183 12.1161 25.8839C11.8817 25.6495 11.75 25.3315 11.75 25H10.5C10.1685 25 9.85054 24.8683 9.61612 24.6339C9.3817 24.3995 9.25 24.0815 9.25 23.75C9.25 23.4185 9.3817 23.1006 9.61612 22.8661C9.85054 22.6317 10.1685 22.5 10.5 22.5H13.625C13.7908 22.5 13.9497 22.4342 14.0669 22.317C14.1842 22.1998 14.25 22.0408 14.25 21.875C14.25 21.7093 14.1842 21.5503 14.0669 21.4331C13.9497 21.3159 13.7908 21.25 13.625 21.25H12.375C11.6 21.2508 10.8524 20.9636 10.2773 20.4442C9.70217 19.9247 9.34056 19.2101 9.26268 18.4391C9.1848 17.668 9.39619 16.8956 9.85582 16.2716C10.3155 15.6477 10.9905 15.2167 11.75 15.0625V15C11.75 14.6685 11.8817 14.3506 12.1161 14.1161C12.3505 13.8817 12.6685 13.75 13 13.75C13.3315 13.75 13.6495 13.8817 13.8839 14.1161C14.1183 14.3506 14.25 14.6685 14.25 15H15.5C15.8315 15 16.1495 15.1317 16.3839 15.3661C16.6183 15.6006 16.75 15.9185 16.75 16.25C16.75 16.5815 16.6183 16.8995 16.3839 17.1339C16.1495 17.3683 15.8315 17.5 15.5 17.5H12.375C12.2092 17.5 12.0503 17.5659 11.9331 17.6831C11.8158 17.8003 11.75 17.9593 11.75 18.125C11.75 18.2908 11.8158 18.4498 11.9331 18.567C12.0503 18.6842 12.2092 18.75 12.375 18.75Z" fill="#00A86B"/>
<path d="M19.8252 4.51255L19.3377 7.66255L19.1002 7.50005C18.4055 7.18437 17.6865 6.9252 16.9502 6.72505C15.6602 6.39335 14.332 6.23363 13.0002 6.25005C11.6664 6.25438 10.3388 6.43083 9.05017 6.77505C8.32311 6.9788 7.6127 7.23789 6.92517 7.55005L6.66267 7.67505L6.17517 4.51255C6.07494 3.85899 6.1493 3.19054 6.3907 2.57498C6.63211 1.95941 7.03198 1.41862 7.54978 1.00743C8.06758 0.596235 8.68489 0.32926 9.33914 0.23357C9.99339 0.137881 10.6613 0.216878 11.2752 0.462554L12.5252 0.962554C12.8222 1.08083 13.1532 1.08083 13.4502 0.962554L14.7002 0.462554C15.314 0.216878 15.982 0.137881 16.6362 0.23357C17.2905 0.32926 17.9078 0.596235 18.4256 1.00743C18.9434 1.41862 19.3432 1.95941 19.5846 2.57498C19.8261 3.19054 19.9004 3.85899 19.8002 4.51255H19.8252Z" fill="#00A86B"/>
</svg>
