<svg width="23" height="24" viewBox="0 0 23 24" fill="none" xmlns="http://www.w3.org/2000/svg">
<path d="M11.3232 14C12.4278 14 13.3232 13.1046 13.3232 12C13.3232 10.8954 12.4278 10 11.3232 10C10.2187 10 9.32324 10.8954 9.32324 12C9.32324 13.1046 10.2187 14 11.3232 14Z" fill="#7F3DFF"/>
<path d="M21.1133 13L20.7333 12.77C20.5922 12.687 20.4754 12.5686 20.3942 12.4265C20.3129 12.2844 20.2702 12.1236 20.2702 11.96C20.2702 11.7964 20.3129 11.6356 20.3942 11.4935C20.4754 11.3514 20.5922 11.233 20.7333 11.15L21.1133 10.92C21.8004 10.5225 22.3021 9.86888 22.5083 9.10226C22.7144 8.33564 22.6084 7.51855 22.2133 6.83L21.2133 5.09C20.8141 4.4018 20.1579 3.90034 19.389 3.69593C18.6201 3.49151 17.8015 3.60089 17.1133 4L16.7933 4.18C16.6455 4.25908 16.4802 4.29977 16.3127 4.29831C16.1451 4.29685 15.9806 4.25331 15.8342 4.17166C15.6878 4.09002 15.5644 3.97291 15.4751 3.83108C15.3858 3.68926 15.3336 3.52727 15.3233 3.36V3C15.3233 2.20435 15.0072 1.44129 14.4446 0.87868C13.882 0.316071 13.1189 0 12.3233 0H10.3233C9.52761 0 8.76454 0.316071 8.20193 0.87868C7.63933 1.44129 7.32326 2.20435 7.32326 3V3.36C7.3203 3.53212 7.27295 3.70057 7.18581 3.84903C7.09866 3.9975 6.97467 4.12095 6.82582 4.20744C6.67698 4.29393 6.50832 4.34053 6.33619 4.34273C6.16405 4.34493 5.99426 4.30266 5.84326 4.22L5.53326 4C4.84501 3.60089 4.02641 3.49151 3.25753 3.69593C2.48864 3.90034 1.83244 4.4018 1.43326 5.09L0.433256 6.83C0.224963 7.17426 0.0880507 7.5569 0.0306663 7.95515C-0.0267181 8.35341 -0.00340211 8.75914 0.0992274 9.1482C0.201857 9.53726 0.381702 9.90169 0.628061 10.2198C0.87442 10.538 1.18226 10.8033 1.53326 11L1.91326 11.23C2.05426 11.313 2.17115 11.4314 2.25236 11.5735C2.33357 11.7156 2.37629 11.8764 2.37629 12.04C2.37629 12.2036 2.33357 12.3644 2.25236 12.5065C2.17115 12.6486 2.05426 12.767 1.91326 12.85L1.53326 13C0.846064 13.3975 0.34443 14.0511 0.138248 14.8177C-0.0679331 15.5844 0.0381495 16.4014 0.433256 17.09L1.43326 18.83C1.62419 19.1775 1.8821 19.4837 2.19209 19.7308C2.50207 19.978 2.85798 20.1613 3.23924 20.2701C3.62049 20.3789 4.01953 20.4111 4.41328 20.3647C4.80704 20.3183 5.1877 20.1944 5.53326 20L5.84326 19.83C5.99528 19.7422 6.16772 19.696 6.34326 19.696C6.51879 19.696 6.69124 19.7422 6.84326 19.83C6.98966 19.9168 7.1115 20.0394 7.19724 20.1864C7.28299 20.3334 7.3298 20.4999 7.33326 20.67V21C7.33326 21.7956 7.64933 22.5587 8.21194 23.1213C8.77454 23.6839 9.53761 24 10.3333 24H12.3333C13.1289 24 13.892 23.6839 14.4546 23.1213C15.0172 22.5587 15.3333 21.7956 15.3333 21V20.63C15.3377 20.4589 15.3861 20.2918 15.4736 20.1447C15.5612 19.9977 15.685 19.8755 15.8333 19.79C15.9853 19.7022 16.1577 19.656 16.3333 19.656C16.5088 19.656 16.6812 19.7022 16.8333 19.79L17.1433 19.97C17.8315 20.3691 18.6501 20.4785 19.419 20.2741C20.1879 20.0697 20.8441 19.5682 21.2433 18.88L22.2433 17.14C22.4455 16.7951 22.5769 16.4133 22.6295 16.017C22.6821 15.6207 22.655 15.2178 22.5497 14.8321C22.4445 14.4464 22.2632 14.0857 22.0165 13.771C21.7698 13.4564 21.4627 13.1943 21.1133 13V13ZM11.3233 16C10.5321 16 9.75877 15.7654 9.10098 15.3259C8.44318 14.8864 7.93049 14.2616 7.62774 13.5307C7.32499 12.7998 7.24577 11.9956 7.40011 11.2196C7.55446 10.4437 7.93542 9.73098 8.49483 9.17157C9.05424 8.61216 9.76697 8.2312 10.5429 8.07686C11.3188 7.92252 12.1231 8.00173 12.854 8.30448C13.5849 8.60723 14.2096 9.11992 14.6491 9.77772C15.0887 10.4355 15.3233 11.2089 15.3233 12C15.3233 13.0609 14.9018 14.0783 14.1517 14.8284C13.4015 15.5786 12.3841 16 11.3233 16Z" fill="#7F3DFF"/>
</svg>
