<svg width="28" height="22" viewBox="0 0 28 22" fill="none" xmlns="http://www.w3.org/2000/svg">
<path d="M18.0007 12.93V13.93C18.0007 14.5866 17.8714 15.2368 17.6201 15.8434C17.3688 16.45 17.0005 17.0012 16.5362 17.4655C16.0719 17.9298 15.5207 18.2981 14.9141 18.5494C14.3075 18.8006 13.6573 18.93 13.0007 18.93H9.74068C9.72525 19.4768 9.56058 20.0091 9.26447 20.4691C8.96835 20.9292 8.55208 21.2995 8.06068 21.54C7.65084 21.7447 7.19882 21.8509 6.74068 21.85C6.06295 21.854 5.40383 21.6284 4.87068 21.21L1.16068 18.3C0.799347 18.0195 0.506919 17.6602 0.30575 17.2494C0.104582 16.8387 0 16.3874 0 15.93C0 15.4726 0.104582 15.0213 0.30575 14.6105C0.506919 14.1997 0.799347 13.8404 1.16068 13.56L4.87068 10.65C5.31768 10.2932 5.85733 10.0717 6.42605 10.0114C6.99478 9.9512 7.56887 10.0548 8.08068 10.31C8.76221 10.6359 9.28708 11.2183 9.54068 11.93H16.9707C17.1045 11.926 17.2378 11.9489 17.3626 11.9973C17.4874 12.0458 17.6012 12.1188 17.6973 12.212C17.7933 12.3053 17.8697 12.4169 17.9218 12.5402C17.9739 12.6636 18.0007 12.7961 18.0007 12.93Z" fill="#C6C6C6"/>
<path d="M27.7407 6.06995C27.7408 6.52728 27.6363 6.97857 27.4353 7.38934C27.2342 7.8001 26.9419 8.15946 26.5807 8.43995L22.8707 11.35C22.3301 11.77 21.6653 11.9986 20.9807 12C20.5226 12.0009 20.0706 11.8947 19.6607 11.69C18.9792 11.364 18.4543 10.7816 18.2007 10.07H10.7407C10.4755 10.07 10.2212 9.9646 10.0336 9.77706C9.84608 9.58952 9.74072 9.33517 9.74072 9.06995V8.06995C9.74072 6.74387 10.2675 5.4721 11.2052 4.53442C12.1429 3.59674 13.4146 3.06995 14.7407 3.06995H18.0007C18.0129 2.5109 18.1811 1.96638 18.4863 1.49784C18.7915 1.02929 19.2216 0.655373 19.728 0.418276C20.2344 0.18118 20.797 0.0903436 21.3524 0.156018C21.9077 0.221693 22.4336 0.441264 22.8707 0.789954L26.5807 3.69995C26.9419 3.98045 27.2342 4.33981 27.4353 4.75057C27.6363 5.16134 27.7408 5.61263 27.7407 6.06995V6.06995Z" fill="#C6C6C6"/>
</svg>
