<svg width="20" height="24" viewBox="0 0 20 24" fill="none" xmlns="http://www.w3.org/2000/svg">
<path d="M10 12C13.3137 12 16 9.31371 16 6C16 2.68629 13.3137 0 10 0C6.68629 0 4 2.68629 4 6C4 9.31371 6.68629 12 10 12Z" fill="#7F3DFF"/>
<path d="M13 13.9301H7C5.14348 13.9301 3.36301 14.6676 2.05025 15.9803C0.737498 17.2931 0 19.0735 0 20.9301C0 21.7257 0.316071 22.4888 0.87868 23.0514C1.44129 23.614 2.20435 23.9301 3 23.9301H17C17.7956 23.9301 18.5587 23.614 19.1213 23.0514C19.6839 22.4888 20 21.7257 20 20.9301C20 19.0735 19.2625 17.2931 17.9497 15.9803C16.637 14.6676 14.8565 13.9301 13 13.9301Z" fill="#7F3DFF"/>
</svg>
